<svg height="71" viewBox="0 0 74 71" width="74" xmlns="http://www.w3.org/2000/svg"><g fill="#d23f61" fill-rule="evenodd"><path d="m42.0904103 1.94355185c10.0472527 0 18.2172161 8.26074075 18.2172161 18.43481485 0 10.1588889-8.1699634 18.4196296-18.2172161 18.4196296-10.0472528 0-18.2172162-8.2607407-18.2172162-18.4196296 0-10.1740741 8.1699634-18.43481485 18.2172162-18.43481485m0 38.37296295c10.87326 0 19.7190476-8.9440741 19.7190476-19.9381481 0-11.00925929-8.8457876-19.95333337-19.7190476-19.95333337-10.8732601 0-19.7190477 8.94407408-19.7190477 19.95333337 0 10.994074 8.8457876 19.9381481 19.7190477 19.9381481"/><path d="m41.8577939 69.0663381c-.7801425.2509524-1.5902904.3838095-2.4304439.3838095-.690126 0-1.3952548-.0885714-2.0853808-.2657143l-24.0193863-7.1152381v-15.1604762h4.2157699c4.9208986 0 9.796789 1.6238096 13.7275068 4.5614286.1200219.0590476.3150576.162381.4650849.162381h11.1620384c.9601753 0 1.8753425.3985714 2.5054575 1.1071428.6151124.7085715.9001644 1.6238096.7801425 2.5390476-.060011.8561905-.4650849 1.6385715-1.1252055 2.1995239-.6751233.5609523-1.5152767.8266666-2.4154411.767619l-10.8169753-.7971429c-.3750685 0-.810148.3395239-.8851617.7380953 0 .3247619.3600658.7528571.750137.8266667l18.7984329 1.387619.3900712-.0147619 15.6478576-4.9304762c1.1402082-.3542857 2.3254246-.2361905 3.3606137.3542857 1.0201863.5757143 1.7553205 1.5647619 2.0103671 2.6866667l.060011.31zm-40.2823562-3.6757143h10.2918795v-22.4085714h-10.2918795zm69.7327342-10.7761905c-1.4852712-1.0480952-3.3156054-1.3285714-5.0259178-.767619l-15.5428383 4.8714286-4.2307726-.2804762.3900712-.5461905c.5250959-.7233333.8701589-1.5942857.9751781-2.48.1650301-1.3876191-.2700493-2.7161905-1.2002192-3.7495238-.9301698-1.0185714-2.2654137-1.5942857-3.6606685-1.5942857h-10.8169753l-.1050192-.0738096c-4.2007671-2.9966666-9.3167014-4.65-14.4326356-4.65h-4.2157699v-3.1442857c0-.4871428-.3000548-.7823809-.7951452-.7823809h-11.86716711c-.49509041 0-.78014246.2952381-.78014246.7823809v23.9733334c0 .5019047.28505205.7971428.78014246.7971428h11.86716711c.4950904 0 .7951452-.2952381.7951452-.7971428v-2.4504762l23.5092932 6.9528571c.9451726.2214286 1.7103123.3247619 2.5804712.3247619 1.1402082 0 2.0853808-.147619 2.880526-.4428571l30.725611-10.5990476c.3300603-.0885715.5701041-.3985715.5701041-.6938096 0-1.8747619-.8851616-3.5723809-2.4004384-4.65z"/><path d="m42.5 5.41518501c7.7649038 0 14.0841346 6.31619409 14.0841346 14.09226329 0 7.7611726-6.3192308 14.0773667-14.0841346 14.0773667s-14.0841346-6.3161941-14.0841346-14.0773667c0-7.7760692 6.3192308-14.09226329 14.0841346-14.09226329m0 29.58481499c8.5384135 0 15.5-6.9567516 15.5-15.4925517 0-8.5506967-6.9615865-15.5074483-15.5-15.5074483-8.5548077 0-15.5 6.9567516-15.5 15.5074483 0 8.5358001 6.9451923 15.4925517 15.5 15.4925517"/><path d="m7 46.4354067c.86124402 0 1.5645933.7033493 1.5645933 1.5645933s-.70334928 1.5645933-1.5645933 1.5645933-1.5645933-.7033493-1.5645933-1.5645933.70334928-1.5645933 1.5645933-1.5645933m0 4.5645933c1.6507177 0 3-1.3492823 3-3s-1.3492823-3-3-3-3 1.3492823-3 3 1.3492823 3 3 3"/><path d="m39.1795213 15.3325472c0-1.3443397 1.0970744-2.4048742 2.9255319-2.4795598v5.168239c-2.3550532-.6273585-2.9255319-1.4190251-2.9255319-2.6886792zm4.168883 4.6603773c2.3404255.6124214 2.9840425 1.4040881 2.9840425 2.7036164 0 1.4488994-1.1409574 2.4795597-2.9840425 2.5841195zm-1.3164894 6.6918239v1.5982705c0 .3734276.3218085.7169811.6875.7169811s.6875-.3435535.6875-.7169811v-1.5534592c2.6914894-.1792452 4.5930851-1.7924528 4.5930851-4.1375786 0-2.2256289-1.375-3.5102201-4.6515957-4.2570754v-5.4221699c.9654255.1493711 1.886968.5676101 2.8377659 1.2696541.1755319.134434.3218085.1493711.4827128.1493711.4388298 0 .8045213-.3286163.8045213-.7767296 0-.3286163-.1901596-.5526729-.4242022-.7319182-1.0970744-.7617924-2.2234042-1.254717-3.6422872-1.404088v-.7169812c0-.3734276-.3218085-.702044-.6875-.702044s-.6875.3286164-.6875.702044v.6721698c-2.6476064.134434-4.5053192 1.80739-4.5053192 4.0628931 0 2.3003145 1.3896277 3.5102201 4.5784575 4.2720126v5.5117924c-1.4920213-.1792452-2.6768617-.8215408-3.8178192-1.8073899-.1023936-.0896226-.2779255-.1643082-.4827127-.1643082-.4388298 0-.8045213.3435535-.8045213.7767296 0 .3136792.1316489.5377358.3656915.702044 1.4042553 1.120283 2.9109042 1.80739 4.6662234 1.956761z"/></g></svg>