<svg enable-background="new 0 0 55.3 55.32" viewBox="0 0 55.3 55.32" xmlns="http://www.w3.org/2000/svg"><g fill="#d23f61"><path d="m28.74 35.06c-.36 0-.73-.1-1.04-.29-2.29-1.38-4.62-2.77-6.88-4.11l-2.86-1.7c-5.13-3.06-10.26-6.11-15.39-9.17-.85-.51-1.19-1.19-1.01-2.02.06-.28.2-.54.33-.76 2.85-4.8 5.71-9.59 8.57-14.38.71-1.19 1.69-1.44 2.89-.72l24.98 14.87c1.13.67 1.38 1.67.71 2.8l-2.22 3.73-.18-.22c-.2-.26-.4-.51-.6-.77-.45-.58-.88-1.12-1.33-1.65-.12-.15-.25-.3-.37-.44-.5-.6-1.01-1.22-1.6-1.71-1.03-.87-2.27-1.13-3.49-.73-1.28.42-2.37 1.51-2.64 2.66-.23.98-.1 1.95.38 2.89 1.28 2.5 2.61 5.09 4.01 7.59.39.7.66 1.47-.09 2.34-.19.22-.33.5-.48.79-.22.45-.62.78-1.11.92-.21.05-.4.08-.58.08m7.26 5.67-.35-.06c-1.33-.24-2.29-.58-3.12-1.11-.08-.05-.14-.1-.18-.16-.48-.71-.96-1.43-1.45-2.16l-.75-1.12.18-.1c.72-.41 1.11-1.08 1.53-1.78.09-.16.19-.32.29-.48l.18-.29.16.31c.35.66.7 1.31 1.05 1.96.82 1.5 1.67 3.06 2.33 4.68zm-.16 4.24-.2-.01c-.29-.01-.58-.02-.88-.03-.72-.02-1.46-.05-2.19-.14-.53-.07-1-.54-1.13-.69-1.53-1.69-2.99-3.38-4.09-4.67-.43-.5-.52-1.09-.23-1.66.31-.62.83-.98 1.49-1.03.18-.02.42.11.53.27l.75 1.14c.42.64.85 1.29 1.3 1.92.21.29.55.57.98.82.95.54 2.03.93 3.32 1.19.23.05.49.15.46.58-.03.48-.06.96-.08 1.48zm-23.74-44.82c-.25 0-.5.03-.75.09-.81.21-1.52.76-1.98 1.54-.51.86-1.02 1.72-1.53 2.58l-7.14 11.99c-.46.77-.62 1.45-.53 2.15.15 1.06.71 1.86 1.71 2.45l18.81 11.19 5.61 3.34c.09.06.19.12.31.19l.41.26-.21.17c-.06.05-.11.1-.16.13-.08.07-.15.12-.22.19-.97 1.04-1.08 2.53-.28 3.62 1.59 2.17 3.17 3.94 4.83 5.41.49.44 1 .66 1.55.68l.46.02c.78.03 1.58.06 2.37.07.33 0 .6.05.69.55.37 2 .9 3.46 1.72 4.72.95 1.46 2.23 2.65 3.82 3.54.31.17.57.17.81-.01s.32-.42.21-.67c-.08-.19-.28-.4-.5-.54-1.2-.73-2.13-1.55-2.84-2.5-1.31-1.76-1.99-3.87-2.08-6.45-.03-.81 0-1.62.03-2.41.02-.4.03-.81.04-1.21.02-.92-.2-1.79-.67-2.66-2.54-4.72-5.09-9.44-7.62-14.17-.41-.78-.78-1.48-1.04-2.23-.29-.83-.11-1.73.47-2.4.6-.69 1.48-.99 2.37-.81.91.18 1.53.83 1.96 1.38 2.32 2.91 4.63 5.82 6.95 8.74l2.47 3.11c.28.35.56.71.85 1.06l.24.31 1.04-.83-.98-1.23c-1.78-2.24-3.55-4.47-5.34-6.7-.17-.22-.3-.47-.06-.84.24-.36.47-.74.67-1.13.22-.42.52-.38.79-.29 1.7.61 3.41 1.22 5.11 1.82l1.75.62c.63.22 1.13.59 1.48 1.09.9 1.27 1.53 2.66 1.86 4.15.53 2.34.98 4.74 1.35 6.8.57 3.13 1.12 6.32 1.66 9.4l.17.97c.23 1.33.45 2.66.67 3.99.13.78.26 1.55.39 2.33.05.29.19.46.46.54.24.07.47.04.62-.1.19-.17.27-.49.21-.85-.11-.65-.22-1.31-.33-1.96-.2-1.18-.4-2.37-.61-3.55-.49-2.71-.98-5.42-1.47-8.13s-.98-5.42-1.47-8.13c-.38-2.14-1.05-3.99-2.05-5.65-.65-1.08-1.49-1.79-2.57-2.16-1.36-.48-2.72-.96-4.07-1.45l-2.98-1.06.57-.98c1.06-1.79.6-3.57-1.18-4.63l-12.73-7.61c-4.12-2.45-8.24-4.91-12.37-7.36-.55-.32-1.14-.49-1.73-.49"/><path d="m28.74 35.06c-.36 0-.73-.1-1.04-.29-2.29-1.38-4.62-2.77-6.88-4.11l-2.86-1.7c-5.13-3.06-10.26-6.11-15.39-9.17-.85-.51-1.19-1.19-1.01-2.02.06-.28.2-.54.33-.76 2.85-4.8 5.71-9.59 8.57-14.38.71-1.19 1.69-1.44 2.89-.72l24.98 14.87c1.13.67 1.38 1.67.71 2.8l-2.22 3.73-.18-.22c-.2-.26-.4-.51-.6-.77-.45-.58-.88-1.12-1.33-1.65-.12-.15-.25-.3-.37-.44-.5-.6-1.01-1.22-1.6-1.71-1.03-.87-2.27-1.13-3.49-.73-1.28.42-2.37 1.51-2.64 2.66-.23.98-.1 1.95.38 2.89 1.28 2.5 2.61 5.09 4.01 7.59.39.7.66 1.47-.09 2.34-.19.22-.33.5-.48.79-.22.45-.62.78-1.11.92-.21.05-.4.08-.58.08zm7.26 5.67-.35-.06c-1.33-.24-2.29-.58-3.12-1.11-.08-.05-.14-.1-.18-.16-.48-.71-.96-1.43-1.45-2.16l-.75-1.12.18-.1c.72-.41 1.11-1.08 1.53-1.78.09-.16.19-.32.29-.48l.18-.29.16.31c.35.66.7 1.31 1.05 1.96.82 1.5 1.67 3.06 2.33 4.68zm-.16 4.24-.2-.01c-.29-.01-.58-.02-.88-.03-.72-.02-1.46-.05-2.19-.14-.53-.07-1-.54-1.13-.69-1.53-1.69-2.99-3.38-4.09-4.67-.43-.5-.52-1.09-.23-1.66.31-.62.83-.98 1.49-1.03.18-.02.42.11.53.27l.75 1.14c.42.64.85 1.29 1.3 1.92.21.29.55.57.98.82.95.54 2.03.93 3.32 1.19.23.05.49.15.46.58-.03.48-.06.96-.08 1.48zm-23.74-44.82c-.25 0-.5.03-.75.09-.81.21-1.52.76-1.98 1.54-.51.86-1.02 1.72-1.53 2.58l-7.14 11.99c-.46.77-.62 1.45-.53 2.15.15 1.06.71 1.86 1.71 2.45l18.81 11.19 5.61 3.34c.09.06.19.12.31.19l.41.26-.21.17c-.06.05-.11.1-.16.13-.08.07-.15.12-.22.19-.97 1.04-1.08 2.53-.28 3.62 1.59 2.17 3.17 3.94 4.83 5.41.49.44 1 .66 1.55.68l.46.02c.78.03 1.58.06 2.37.07.33 0 .6.05.69.55.37 2 .9 3.46 1.72 4.72.95 1.46 2.23 2.65 3.82 3.54.31.17.57.17.81-.01s.32-.42.21-.67c-.08-.19-.28-.4-.5-.54-1.2-.73-2.13-1.55-2.84-2.5-1.31-1.76-1.99-3.87-2.08-6.45-.03-.81 0-1.62.03-2.41.02-.4.03-.81.04-1.21.02-.92-.2-1.79-.67-2.66-2.54-4.72-5.09-9.44-7.62-14.17-.41-.78-.78-1.48-1.04-2.23-.29-.83-.11-1.73.47-2.4.6-.69 1.48-.99 2.37-.81.91.18 1.53.83 1.96 1.38 2.32 2.91 4.63 5.82 6.95 8.74l2.47 3.11c.28.35.56.71.85 1.06l.24.31 1.04-.83-.98-1.23c-1.78-2.24-3.55-4.47-5.34-6.7-.17-.22-.3-.47-.06-.84.24-.36.47-.74.67-1.13.22-.42.52-.38.79-.29 1.7.61 3.41 1.22 5.11 1.82l1.75.62c.63.22 1.13.59 1.48 1.09.9 1.27 1.53 2.66 1.86 4.15.53 2.34.98 4.74 1.35 6.8.57 3.13 1.12 6.32 1.66 9.4l.17.97c.23 1.33.45 2.66.67 3.99.13.78.26 1.55.39 2.33.05.29.19.46.46.54.24.07.47.04.62-.1.19-.17.27-.49.21-.85-.11-.65-.22-1.31-.33-1.96-.2-1.18-.4-2.37-.61-3.55-.49-2.71-.98-5.42-1.47-8.13s-.98-5.42-1.47-8.13c-.38-2.14-1.05-3.99-2.05-5.65-.65-1.08-1.49-1.79-2.57-2.16-1.36-.48-2.72-.96-4.07-1.45l-2.98-1.06.57-.98c1.06-1.79.6-3.57-1.18-4.63l-12.73-7.61c-4.12-2.45-8.24-4.91-12.37-7.36-.55-.32-1.14-.49-1.73-.49z"/><path d="m13.73 14.74-3.5-2.08 1.63-2.74 3.52 2.1zm-1.8-6.13c-.58.06-1.04.33-1.3.75-.46.75-.98 1.61-1.46 2.47-.43.76-.21 1.62.53 2.07 1.02.63 2.06 1.25 3.2 1.9.75.43 1.61.2 2.07-.53.47-.76.94-1.55 1.4-2.36.48-.84.27-1.67-.56-2.18-1.13-.69-2.15-1.29-3.1-1.84-.16-.09-.34-.15-.54-.2-.08-.03-.16-.05-.24-.08"/><path d="m13.73 14.74-3.5-2.08 1.63-2.74 3.52 2.1zm-1.8-6.13c-.58.06-1.04.33-1.3.75-.46.75-.98 1.61-1.46 2.47-.43.76-.21 1.62.53 2.07 1.02.63 2.06 1.25 3.2 1.9.75.43 1.61.2 2.07-.53.47-.76.94-1.55 1.4-2.36.48-.84.27-1.67-.56-2.18-1.13-.69-2.15-1.29-3.1-1.84-.16-.09-.34-.15-.54-.2-.08-.03-.16-.05-.24-.08z"/><path d="m6.75 16.63c-.4.02-.62.18-.71.5-.06.22-.07.5.4.78 3.36 2 6.73 4.01 10.09 6 .43.25.82.19 1.04-.16.09-.14.11-.3.07-.45-.05-.2-.21-.39-.45-.53-3.36-2.01-6.73-4.01-10.09-6.01-.1-.06-.21-.09-.3-.12-.01 0-.03-.01-.05-.01"/><path d="m6.75 16.63c-.4.02-.62.18-.71.5-.06.22-.07.5.4.78 3.36 2 6.73 4.01 10.09 6 .43.25.82.19 1.04-.16.09-.14.11-.3.07-.45-.05-.2-.21-.39-.45-.53-3.36-2.01-6.73-4.01-10.09-6.01-.1-.06-.21-.09-.3-.12-.01 0-.03-.01-.05-.01z"/><path d="m19.01 23.99c-.06 0-.11.01-.17.02-.16.04-.29.15-.38.31-.19.35-.06.71.35.96.95.57 1.9 1.13 2.85 1.69.12.07.25.11.35.15.02.01.05.02.07.02.36-.01.62-.19.71-.48.09-.3-.04-.59-.35-.77-.98-.59-1.97-1.17-2.95-1.75-.16-.1-.33-.15-.48-.15"/><path d="m19.01 23.99c-.06 0-.11.01-.17.02-.16.04-.29.15-.38.31-.19.35-.06.71.35.96.95.57 1.9 1.13 2.85 1.69.12.07.25.11.35.15.02.01.05.02.07.02.36-.01.62-.19.71-.48.09-.3-.04-.59-.35-.77-.98-.59-1.97-1.17-2.95-1.75-.16-.1-.33-.15-.48-.15z"/></g></svg>