<svg height="63" viewBox="0 0 112 63" width="112" xmlns="http://www.w3.org/2000/svg"><g fill="#237b99" fill-rule="evenodd"><path d="m32.1046038 42.8337455c-.226.9134545-.8967564 1.8036363-1.8659487 2.4872727-.9691923-.6836364-1.6399487-1.5723637-1.8659487-2.4872727-.4867692-1.9781819.8793718-3.9229091 1.8659487-5.0167273.986577 1.0938182 2.352718 3.04 1.8659487 5.0167273zm-.6258461 4.2487272c.9213846-1.4923636 2.8655641-1.9243636 4.1563718-2.0392727-.1144487 1.2930909-.5432692 3.2450909-2.034 4.1716364-.6837949.4261818-1.6051795.5876363-2.5801667.4596363-.1260384-.9774545.0333205-1.9010909.4577949-2.592zm-2.0224103 2.592c-.9720897.128-1.8920256-.0334545-2.5801666-.4596363-1.4863846-.9236364-1.9166539-2.8770909-2.0325513-4.1716364 1.2908077.1163636 3.2364359.5483636 4.1549231 2.0392727.4244743.6909091.585282 1.616.4577948 2.592zm-12.516923-18.8305454h28.5600256v30.2472727h-14.5364359v-9.9970909c.2375897.0261818.4809744.0785454.7127692.0785454.9952693 0 1.9195513-.2443636 2.6888205-.722909 2.3585129-1.4647273 2.7409744-4.493091 2.7569103-6.1672728.0028974-.1949091-.0738846-.384-.2115128-.5207272-.1376282-.1381819-.3607308-.24-.5200898-.2138182-.8503974.0101818-2.0484871.1178182-3.2132564.5309091.1361795-.2923637.2578718-.5890909.3346539-.896.7330513-2.9730909-1.4197436-5.6203637-2.7670513-6.9338182-.2810513-.2763637-.7272564-.2763637-1.0097564 0-1.3473077 1.312-3.5015513 3.9592727-2.7670513 6.9338182.0753333.3069091.1970256.6050909.3346538.8974545-1.1647692-.4130909-2.3643076-.5221818-3.2132564-.5323636-.1868846-.0276364-.3824615.0756363-.5215384.2138182-.1376282.1367272-.2144103.3258181-.2115128.5221818.0188333 1.6756363.4027435 4.704 2.7583589 6.1658182.7692693.4785454 1.695.7243636 2.6888205.7243636.2332436 0 .4708334-.0130909.7113206-.0407273v9.9578182h-12.5748718zm13.8207692-26.23418185 14.7392564 18.13381815v6.6458182h-28.5600256v-6.6603636l5.4805-7.3221818zm7.581141-.55272727 20.5181923 25.37454542h-6.0368077l-5.7760384-7.1578181c-.0550513-.1789091-.1738462-.3229091-.3332052-.413091l-14.3640384-17.80363632zm41.6390513 25.37454542h-19.2549103l-20.5181923-25.37454542h19.256359zm18.1336026 0h-16.2662052l-20.5181923-25.37454542h16.2633077zm6.9697825 0h-5.1023851l-20.5210897-25.37454542h5.1501923zm-43.1819364 8.5963637h7.9737436v22.7592727c0 .1090909.0275256.2094545.0709872.304h-8.1142692c.0420128-.0945455.0695384-.1949091.0695384-.304zm32.9887564-7.1345455v30.1978182h-23.637282c.0434615-.0945455.0709872-.1949091.0709872-.304v-22.9585455h1.9050641c.3998461 0 .7243589-.3258181.7243589-.7272727 0-.4029091-.3245128-.7272727-.7243589-.7272727h-14.8768847c-.4012948 0-.7243589.3243636-.7243589.7272727 0 .4014546.3230641.7272727.7243589.7272727h2.1006411v22.9585455c0 .1090909.0275256.2094545.0709871.304h-13.4339615v-36.4552727l4.8242308 5.9810909c.1376282.1701818.3447948.2690909.5635513.2690909h7.5565128l1.402359 1.7338182c.1419743.176.3520384.2676363.5621025.2676363.1608077 0 .3216154-.0523636.4563462-.1614545.3100256-.2545455.3578333-.7112727.1057564-1.024l-.6591667-.816h19.2549103l1.4009102 1.7338182c.1434231.176.3520385.2676363.5635513.2676363.159359 0 .3216154-.0523636.4548974-.1614545.3114744-.2545455.3578334-.7112727.1072052-1.024l-.6606154-.816h11.8693461c0 .0029091-.0014487.0043636-.0014487.0072727zm-88.78902562 25.3236364c-.97643589.128-1.89492307-.0334546-2.58161538-.4610909-1.48638462-.9221818-1.91665385-2.8756364-2.03255128-4.1701818 1.29080769.1163636 3.2364359.5483636 4.15492307 2.0392727.42447436.6909091.58528206 1.616.45924359 2.592zm.78085898-11.8574546c.98657692 1.0938182 2.35271795 3.04 1.86594872 5.0167273-.226.9149091-.89675641 1.8036364-1.86594872 2.4872727-.96774359-.6836363-1.63994872-1.5738181-1.8645-2.4872727-.48821795-1.9767273.87937179-3.9229091 1.8645-5.0167273zm3.36247434 11.3978182c-.68524357.4261818-1.60662819.5861818-2.58016665.4596364-.12748718-.9774546.03332051-1.9010909.45924359-2.592.9199359-1.4923637 2.86411536-1.9243637 4.15492306-2.0392727-.1144487 1.2930909-.5432692 3.2450909-2.034 4.1716363zm100.8640893 5.3338182h-3.505897v-3.0952727c0-.4029091-.324513-.7272728-.724359-.7272728-.401295 0-.724359.3243637-.724359.7272728v3.0952727h-9.815064v-30.1978182c0-.0029091-.0014487-.0043636-.0014487-.0072727h2.9524871l1.4704486 1.8181818c.143423.176.352039.2690909.563551.2690909.159359 0 .321616-.0523636.454898-.1643636.311474-.2516364.357833-.7098182.105756-1.0225455l-.727256-.9003636h5.444282c.279602 0 .534577-.16.65482-.4145455.120244-.2530909.084026-.5527272-.091269-.7694545l-21.6467434-26.83054546c-.1376282-.17018182-.3447949-.26909091-.5635513-.26909091h-5.8658589l.8634359-1.13890909c.2419359-.32.1810897-.77672728-.1376282-1.01963637-.3172693-.24436363-.7721667-.18181818-1.0155513.13818182l-1.0401795 1.37309091-.7692692-.95127273c-.2506283-.30981818-.7084231-.36218181-1.0184488-.10472727-.3114743.25309091-.3578333.70981818-.1057564 1.02254545l.5505128.68072728h-15.4158076l.8648846-1.13890909c.2419359-.32.1810897-.77672728-.1361795-1.01963637-.3201667-.24436363-.7721667-.18327272-1.0155513.13818182l-1.0619103 1.39927273-.7895512-.97745455c-.252077-.30981818-.7084231-.36072727-1.0184488-.10618181-.3114743.25454545-.3578333.71127272-.1072051 1.02399999l.5505128.68072728h-18.4146538l.8634359-1.13890909c.2419359-.32.1810897-.77672728-.1376282-1.01963637-.318718-.24436363-.7736154-.18181818-1.0155513.13818182l-1.0561154 1.39490909-.7866538-.97309091c-.252077-.30981818-.7098718-.36218181-1.0184488-.10472727-.3114743.25309091-.359282.70981818-.1072051 1.02254545l.5505128.68072728h-6.3004743c-.0941667-.03636364-.1912308-.06109091-.2767051-.06545455-.2231026.00436364-.4302693.112-.565.28945455l-8.7661924 11.71345457-11.6752179 15.1127272c-.24628205.3185455-.18833334.7752728.12748718 1.0225455.13183333.1018182.28829487.1512727.44330772.1512727.2173077 0 .4302692-.096.5736923-.2807272l4.7648333-6.1687273v36.7141818h-7.88392307v-3.4545455c.23758975.0261819.48097436.0785455.71276923.0785455.99526923 0 1.91955124-.2443636 2.68737184-.7229091 2.3599615-1.4647273 2.742423-4.4916364 2.7583589-6.1672727.0028975-.1949091-.0738846-.384-.2115128-.5207273-.1376282-.1381818-.3476923-.2385454-.5215384-.2138182-.8489488.0101818-2.0470385.1178182-3.21180774.5309091.13617949-.2923636.25787184-.5890909.33465384-.896.7316026-2.9730909-1.41974358-5.6203636-2.76849999-6.9338182-.27960257-.2763636-.72725642-.2763636-1.0083077 0-1.34730769 1.3134546-3.50010256 3.9607273-2.76705128 6.9338182.07533333.3069091.19702564.6050909.33465385.8974546-1.16476923-.4130909-2.36285898-.5221819-3.21325641-.5323637-.22165385-.0276363-.38246154.0756364-.52008975.2138182-.1376282.1367273-.21441025.3258182-.21298167.5221818.02030219 1.6741818.40276372 4.704 2.75837911 6.1658182.76926923.4785455 1.695.7243636 2.68882051.7243636.23324359 0 .47083334-.0130909.71132051-.0407272v3.4152727h-2.4700641c-.40129487 0-.72435897.3243636-.72435897.7272727 0 .4014546.3230641.7272728.72435897.7272728h107.42098672c.399847 0 .724359-.3258182.724359-.7272728 0-.4029091-.324512-.7272727-.724359-.7272727z"/><path d="m82.3701311 45.5298049h4.2597378v-8.0596098h-4.2597378zm-1.3701311-8.7947073v9.5298048c0 .4057739.3055392.7350976.6850656.7350976h5.6298688c.3781562 0 .6850656-.3293237.6850656-.7350976v-9.5298048c0-.4072441-.3069094-.7350976-.6850656-.7350976h-5.6298688c-.3795264 0-.6850656.3278535-.6850656.7350976z"/></g></svg>