<svg height="72" viewBox="0 0 101 72" width="101" xmlns="http://www.w3.org/2000/svg"><g fill="#50813b" fill-rule="evenodd"><path d="m45.2765686 18.7329079c.0432857-.0289474 5.0211428-2.1406579 10.7781428-.7381579.0432857 0 3.2608572.4197368 5.8291429 4.0960526.303.4342106.606.9118421.8801428 1.4473685.2741429.5225.5338572 1.1.7791429 1.7238157.8224286 2.475 1.919 5.731579 2.2652857 10.1894737h-4.0977143c-.4184285-4.0960526-1.5727143-6.9907894-2.2652857-8.7276316-.1442857-.3488157-.2597143-.6527631-.3607143-.9118421-.1298571-.3777631-.5482857-.5803947-.9234285-.4356579-.3462858.1317106-.5482858.506579-.4472858.8684211-.0144285.0578947-.0144285.1302632-.0144285.1881579l.2164285 9.0185526h-12.3075714l.2164286-10.6830263v-.275c0-.2446053-.1298572-.4776316-.3318572-.6064474-.202-.1461842-.4617142-.1606579-.6781428-.0578947-.2741429.1157895-.5771429.231579-.909.3618421-2.5668429 1.0261842-6.8535714 2.7485526-12.2787143 9.7827632-.6637143.868421-1.919 1.0276315-2.7847143.3618421-.7214286-.5630263-.9667143-1.5776316-.5771428-2.4171053.0577142-.1157895.1298571-.2460526.2308571-.3618421 2.6692857-3.4577632 5.5117143-6.0789474 8.1232857-8.018421.7214286-.5355264 1.414-1.0131579 2.0777143-1.4473685 2.8135714-1.8222368 5.1942857-2.8498684 6.5794286-3.3578947zm14.0822857 16.7185526-.1154286-5.0382894c.4328572 1.4039473.8224286 3.068421 1.0388572 5.0382894zm-27.169 0c.202-.1736842.404-.3777631.5771428-.593421 5.1221429-6.6593421 9.1621429-8.3093421 11.5861429-9.2921053l-.1875714 9.8855263zm47.7008571-3.6922368c2.5105715 0 4.6027143 1.5486842 5.0211429 3.5605263h-10.0264143c.4169857-2.0118421 2.5091286-3.5605263 5.0052714-3.5605263zm-79.1695714-8.2210526h33.5464286c-2.2797143 1.8540789-4.6604286 4.2118421-6.9257143 7.1355263-.1442857.2040789-.2741429.4052631-.3751429.6238158-.6925714 1.4314473-.2597143 3.1827631.9667143 4.1539473h-17.96357141c-.43285715 0-.77914286.3459211-.77914286.7801316v33.7092105h1.54385717v-32.9276315h33.3877143 1.4572857 12.3797143.7214285.7214286 1.01.707.7214286 4.0544285 1.4428572 22.5951428v32.9276315h1.5582858v-33.7092105c0-.4342105-.3462858-.7801316-.7791429-.7801316h-4.3141429c-.3174285-2.6776316-2.7371-4.8038158-5.7786428-5.0947368v-1.3938158h1.1066714c.3982286 0 .7214286-.3227632.7214286-.7236842 0-.3994737-.3232-.7236842-.7214286-.7236842h-3.6562c-.3982286 0-.7214286.3242105-.7214286.7236842 0 .400921.3232.7236842.7214286.7236842h1.1066714v1.3923684h-.0072142c-3.03.2894737-5.454 2.4171053-5.7714286 5.0961842h-6.1465714c-.3462858-4.6619737-1.4861429-8.0763158-2.3518572-10.6540789 0 0-.0432857-.1447369-.0432857-.1592105-.1442857-.3893422-.303-.7511843-.4761429-1.1h35.5664286c.4040003 0 .7214283-.3328948.7214283-.7236843 0-.4052631-.317428-.7236842-.7214283-.7236842h-36.3167143c-2.9578571-4.9630263-7.1854285-5.5130263-7.3152857-5.5289473-6.1465714-1.4893421-11.3985714.7396052-11.5717143.825-1.7025714.6382894-4.9201428 2.0277631-8.585 4.7039473h-35.4365714c-.38957143 0-.72142857.3184211-.72142857.7236842 0 .3907895.33185714.7236843.72142857.7236843z"/><path d="m51.9838039 1.3986014c3.0399886 0 5.5588362 2.23916084 5.8049305 5.1048951.0144761.15384616.0289523.32167833.0289523.48951049 0 .30909091-.0289523.61538462-.0868568.90909091-.4487602 2.6573427-2.8517988 4.6993007-5.747026 4.6993007-2.8952271 0-5.2982657-2.041958-5.7470259-4.6993007-.0579046-.29370629-.0868568-.6-.0868568-.90909091 0-.16783216.0144761-.33566433.0289522-.48951049.2460944-2.86573426 2.764942-5.1048951 5.8049305-5.1048951m-7.2091156 6.5034965c.4487602 3.4405594 3.517701 6.0979021 7.2091156 6.0979021 3.6914147 0 6.7603555-2.6573427 7.2091157-6.0979021h41.0832734c.405332 0 .723807-.3062937.723807-.6993007 0-.39160839-.318475-.6993007-.723807-.6993007h-41.039845c-.2460943-3.63636363-3.4163681-6.5034965-7.2525441-6.5034965s-7.0064497 2.86713287-7.252544 6.5034965h-44.00745311c-.39085566 0-.72380679.30769231-.72380679.6993007 0 .393007.33295113.6993007.72380679.6993007z"/><path d="m99.9529186 70h-99.22817146c-.39822857 0-.72142857.336-.72142857.75s.3232.75.72142857.75h99.22817146c.3982284 0 .7214284-.336.7214284-.75s-.3232-.75-.7214284-.75"/><path d="m65.6962457 44.3984005.2047782-.1765835c.1316431.1927703.2925402.3678823.4826914.5017914.4388103.3678823 1.0092637.5724249 1.6235982.5724249.8629937 0 1.6382253-.4267435 2.1062896-1.0889316l4.0078011 3.4728087h-12.2281814l.3803023-.3222648.7606046-.6621881zm1.1409069-1.7496481c0-.6489443.5265724-1.1772233 1.1701609-1.1772233s1.1701609.528279 1.1701609 1.1772233c0 .2192578-.058508.4267434-.1755241.6033269-.1901512.3369802-.5704535.5724249-.9946368.5724249s-.8044856-.2354447-.9946368-.5724249c-.117016-.1765835-.1755241-.3840691-.1755241-.6033269zm-12.3744515 18.8797185h27.0745978v-12.3755598h-27.0745978zm7.4890298-15.8498401-.5558265.4856046-.5850804.5003199-1.0970259.956494c-.014627.0147153-.043881.0456174-.058508.0588611h-5.9239395c-.3949293 0-.7313506.3237364-.7313506.7357646v13.8485604c0 .4105567.3364213.7357646.7313506.7357646h28.5372988c.4095564 0 .7313506-.3252079.7313506-.7357646v-13.8485604c0-.4120282-.3217942-.7357646-.7313506-.7357646h-5.9093125c-.014627-.0132437-.043881-.0441458-.058508-.0588611l-5.6752804-4.900192c.014627-.0294306.014627-.0441458.014627-.0721049 0-1.4582853-1.1847879-2.6487524-2.632862-2.6487524-.4095563 0-.7898586.0868202-1.1409069.2634037-.2779132.1324376-.5411994.3237364-.7606046.5459373-.4534373.4694178-.7313505 1.1168906-.7313505 1.8394114 0 .0279591 0 .0426743.014627.0721049l-.2340322.1912988z"/><path d="m18.4830508 48.5197368h11.0338984v-6.0394736h-11.0338984zm12.5169492.7401316v-7.5197368c0-.415954-.3262712-.7401316-.7415254-.7401316h-12.5169492c-.4152542 0-.7415254.3241776-.7415254.7401316v7.5197368c0 .4129934.3262712.7401316.7415254.7401316h12.5169492c.4152542 0 .7415254-.3271382.7415254-.7401316z"/><path d="m27.4318011 64.5295662h16.1363978v-11.0591324h-16.1363978zm-.7159006 1.4704338h17.568199c.4009043 0 .7159005-.3234954.7159005-.7352169v-12.5295662c0-.2190946-.1002261-.4264258-.2434062-.5587648-.1288621-.10146-.2863602-.1764521-.4724943-.1764521h-17.568199c-.4009043 0-.7159005.3249659-.7159005.7352169v12.5295662c0 .4117215.3149962.7352169.7159005.7352169z"/><path d="m59.3090909 55.486631c0-.2419786.0623377-.4692513.1714286-.6684492.1558441-.3074866.4207792-.5481283.7636363-.696524.2181819-.092246.4675325-.145722.748052-.145722.9974026 0 1.7142857.6951872 1.7142857 1.5240642v.013369c0 .828877-.7012987 1.4973262-1.6987013 1.4973262-.2961039 0-.561039-.0534759-.7948052-.1737968-.3116883-.1336898-.5454545-.3475936-.7012987-.6149733-.1402597-.2139037-.2025974-.4545454-.2025974-.7219251zm-.9194805 1.2687166c.187013.2954545.451948.5481283.7792208.75.4987013.3061497 1.1220779.4946524 1.8233766.4946524 1.7454545 0 3.0077922-1.1229947 3.0077922-2.5v-.013369c0-1.3770053-1.2467532-2.486631-2.9922078-2.486631-.2805195 0-.5454545.026738-.7948052.0935829-.2805195.0534759-.5454545.1457219-.7792208.2673797-.3116883.1470588-.5766233.3475935-.7636363.5748663-.4363637.4278075-.6701299.9745989-.6701299 1.5641711v.013369c0 .1470588.0155844.2794117.0467532.4144385.0467533.2941176.1714286.5748663.3428572.8275401z"/><path d="m69.5755396 58h2.9208633c.2733813 0 .5035971-.2196133.5035971-.4958564 0-.2638121-.2302158-.4848066-.5035971-.4848066h-2.3597123v-1.0497237h1.9856116c.2877697 0 .5179856-.2209945.5179856-.4820442 0-.2776243-.2302159-.4986188-.5179856-.4986188h-1.9856116v-1.0220995h2.3165468c.2877698 0 .5179856-.2058011.5179856-.4834254 0-.2624309-.2302158-.4834254-.5179856-.4834254h-2.8776978c-.3309353 0-.5755396.2361878-.5755396.5524862v3.8964088c0 .3024862.2446043.551105.5755396.551105"/><path d="m74.621118 58c.326087 0 .6055901-.2445652.6055901-.5434783v-2.6222826l2.4689441 2.826087c.1708074.1902174.3416149.3260869.6366459.3260869h.0465839c.3416149 0 .621118-.2432065.621118-.5434782v-3.9130435c0-.298913-.2795031-.5298913-.6055901-.5298913-.3416149 0-.621118.2309783-.621118.5298913v2.5407609l-2.3757764-2.7432065c-.1708074-.1915761-.3571428-.3138587-.6521739-.3138587h-.1242236c-.3416149 0-.621118.2309782-.621118.5298913v3.9130434c0 .2989131.2795031.5434783.621118.5434783"/><path d="m65.1048951 53.9874007h.8671329c.5594405 0 .8951049.2588332.8951049.7395234v.0136949c0 .4231717-.3216784.7532183-.8811189.7532183h-.8811189zm-.5594406 4.0125993c.3216784 0 .5594406-.2465078.5594406-.5491646v-.9846617h.8531469c1.1328671 0 2.041958-.5888798 2.041958-1.7392496v-.0150643c0-1.0120515-.7272727-1.7118598-1.9440559-1.7118598h-1.5104896c-.3076923 0-.5454545.2341824-.5454545.5491646v3.9016708c0 .3026568.2377622.5491646.5454545.5491646z"/></g></svg>