<svg height="71" viewBox="0 0 104 71" width="104" xmlns="http://www.w3.org/2000/svg"><g fill="#e5a923" fill-rule="evenodd"><path d="m13.998605 1.39442231c3.0912714 0 5.6064169 2.51414343 5.6064169 5.60557769 0 3.0900398-2.5151455 5.6055777-5.6064169 5.6055777-3.0898764 0-5.60362692-2.5155379-5.60362692-5.6055777 0-3.09143426 2.51375052-5.60557769 5.60362692-5.60557769m0 12.60557769c3.8612993 0 7.001395-3.140239 7.001395-7 0-3.85976096-3.1400957-7-7.001395-7-3.8599043 0-6.998605 3.14023904-6.998605 7 0 3.859761 3.1387007 7 6.998605 7"/><path d="m71.1156333 63.2712565h21.4081111v6.2943913h-27.3635555c3.0102222-.7963043 5.3574444-3.2268261 5.9554444-6.2943913zm-14.8026666-1.5524348c0-3.7003043 3.0304444-6.711913 6.7527777-6.711913 3.0275556 0 5.5972223 1.9900435 6.4523334 4.7218696.0086666.0416087.0202222.0803478.0346666.1176521.1747778.594.2686667 1.2238696.2686667 1.8723913 0 3.7017392-3.0304444 6.7133479-6.7556667 6.7133479-3.7223333 0-6.7527777-3.0116087-6.7527777-6.7133479zm-6.6718889-2.8724347v-13.926l13.3177778-5.1637827c.4578888-.1736086.8825555-.408913 1.2653333-.693.7915555-.5882608 1.4097778-1.3946086 1.7622222-2.3286521h16.2557778v22.1114348h-11.5035556c-1.1714444-3.0776087-4.1686666-5.2742609-7.6728889-5.2742609-3.5027777 0-6.5 2.1966522-7.67 5.2742609zm5.2288889 2.9900869h-7.7595556v-1.5366522h7.8837778c-.0823333.4605653-.1256667.9354783-.1256667 1.419 0 .0387392 0 .0789131.0014445.1176522zm-7.3262223-21.6293478.6528889-.4792174v1.1277391c-.1978889-.2338695-.416-.4519565-.6528889-.6485217zm-.6774444 4.2498261c.0101111-.0932609.0144444-.1865218.0144444-.2826522 0-1.0445217-.611-1.9527391-1.495-2.3874783l.9475556-.6944347c.949.6499565 1.5845556 1.7203043 1.6307778 2.9384347zm-1.43-.2826522c0 .5021739-.3047778.9340435-.7395556 1.1234348l-.0924444.0358695c-.1256667.0416087-.2585556.066-.3972222.066h-.0043334c-.6788888 0-1.2321111-.5495217-1.2321111-1.2253043v-.0043043-.0028696c.0028889-.3916957.1906667-.7403478.481-.9627391l.0447778-.033c.2007778-.139174.4448889-.2223913.7063333-.2223913.6803334 0 1.2335556.5509565 1.2335556 1.2253043zm-1.2335556 3.7404783c-2.0742222 0-3.7627777-1.6772609-3.7627777-3.7404783 0-2.0617826 1.6885555-3.7404783 3.7627777-3.7404783.1848889 0 .3668889.0129131.5445556.0387392l-2.1132222 1.5466956c-.0101111.0086087-.0202222.0157826-.0317778.0243913l-.0476667.0344348c-.6485555.5036087-1.0212222 1.2583044-1.0284444 2.0761304v.0028696.0014348.0028696.0028695.0028696.0014348.0057391c0 1.4677826 1.2003333 2.660087 2.6765555 2.660087h.0043334.0014444.0028889c.2903333-.0014348.572-.0459131.8392222-.1348696.0115556-.0043044.0231111-.0086087.0332223-.0129131l.0202222-.0057391c.0462222-.0172174.0938889-.0358695.1401111-.0559565l2.3977778-.9297391c-.5878889 1.3070869-1.9081111 2.2196087-3.4392223 2.2196087zm5.4383334-9.2443044 2.6418889-1.9355217h3.952c.5084444 1.3415217 1.5628889 2.4204782 2.8917777 2.9671304l-9.4856666 3.6787826zm0-1.9355217h.2094444l-.2094444.1520869zm6.3382222-2.7074348c-.0505556.2883913-.0765556.5853913-.0765556.8881304 0 .1291305.0057778.2582609.0144445.3845218h-1.6755556zm1.4834444-2.8695652v-2.4032609h7.1832223v2.363087c-.9302223-.8551305-2.1724445-1.3773913-3.536-1.3773913h-.0101111c-.0028889-.0014348-.0043334-.0014348-.0072223 0-1.1266666.0043043-2.1984444.3601304-3.0968889 1.0287391zm3.6342223.0172174c.0014444-.0014348.0043333-.0014348.0057777 0h.0072223c2.0756666 0 3.7642222 1.6786956 3.7642222 3.7404782v.0057392.0014347.0028696.0028696.0014348c0 .2683043-.0317778.5323043-.0881111.7876956-.0346667.0760435-.0577778.1578261-.0635556.2453478-.2571111.8637392-.8233333 1.6198696-1.5932222 2.1105652-.5835556.3687392-1.2768889.5839566-2.0193333.5839566-2.0742223 0-3.7627778-1.6786957-3.7627778-3.7419131 0-2.0574782 1.6813333-3.7333043 3.7497778-3.7404782zm-9.7023334-10.7651739h19.318l-5.8745555 6.909913h-7.5674445zm-1.9947777-3.7720435h23.3826666l-.9114444 2.3372608h-21.5612222zm32.8091111 12.3893478c1.4386666 0 2.8354444.4677391 3.9982222 1.3314783l-1.599 1.728913c-.7135556-.4677391-1.5441111-.7188261-2.3992222-.7188261-2.2764445 0-4.1542223 1.7274783-4.3766667 3.9313044h-2.3616667c.2296667-3.498 3.1647778-6.2728696 6.7383334-6.2728696zm14.5253333 31.2725217v1.5366522h-25.4698889c.0014445-.0387391.0014445-.078913.0014445-.1176522 0-.4835217-.0433334-.9584347-.1256667-1.419zm-78.3755556 7.0203913c0 .944087-.7727777 1.7131305-1.7217777 1.7131305s-1.7203334-.7690435-1.7203334-1.7131305v-6.8037391h3.4421111zm-4.3911111 2.2454348c.0794445-.078913.1545556-.1606956.2267778-.2467826.0707778.086087.1473333.1678696.2267778.2467826zm-.4954444-2.2454348c0 .944087-.7727778 1.7131305-1.7232222 1.7131305-.949 0-1.7217778-.7690435-1.7217778-1.7131305v-6.8037391h3.445zm-4.68144446-8.2385217v-2.7906522c0-.1922608-.078-.375913-.21522222-.5122174-.13866666-.1334347-.29177778-.2008695-.51711111-.2051739l-.29611111.0043044.79011111-32.4834783c0-1.6126956.65288889-3.1091739 1.83733329-4.2110869 1.1815556-1.1004783 2.7198889-1.6528696 4.3535556-1.5423913 3.0376667.1951304 5.4166667 2.8207826 5.4166667 5.9930869l.0014444.0157826c-2.6303333-1.6743913-4.5355555-3.2253913-5.4253333-3.993-.3018889-.2596956-.7568889-.2295652-1.0197778.0717391-.26.2984348-.2282222.7532609.0722222 1.0115218 2.4858889 2.1406956 8.8457778 7.0548261 17.0906667 9.4279565.0534444.0315652.104.0688696.1675555.0846522.065.0186522.1314445.0272609.1964445.0272609.0014444 0 .0028889-.0028696.0057778-.0028696.6355555.1764782 1.2783333.3386087 1.9341111.4820869.5185555.1119131.9605555.4189566 1.2465555.8623044.2845556.4433478.3798889.9684783.2643334 1.485-.2253334 1.0373478-1.3072223 1.7332174-2.3544445 1.4993478-9.659-2.0933478-17.7291111-8.0692174-20.7494444-10.5384782-.3091111-.2539566-.7641111-.2080435-1.0168889.0975652s-.2094445.7575652.0982222 1.0086521c1.7651111 1.4448261 5.2101111 4.0532609 9.685 6.4306957l.5936667 24.0684783-.3192222.0043043c-.3943334.0057391-.7121112.3256957-.7121112.7173913v2.9872174h-.8377777zm39.29033336-4.7233043-8.6175556 3.5281304c-.1141111-.515087-.0707778-.9756522.1328889-1.3960435.6167778-1.2783913 2.5032222-1.7977826 2.6101111-1.8336522l5.8745556-2.4032608zm35.6055555-7.808087h10.6672223c-.6427778 2.9068696-5.1451112 5.2240435-10.6672223 5.4062609zm19.3208887 23.0153478h-4.4315553v-1.4620435c0-.396-.3221111-.7173913-.7222223-.7173913-.3986666 0-.7222222.3213913-.7222222.7173913v1.4620435h-3.1633333v-6.2943913h3.4883333c.4001111 0 .7222222-.3213913.7222222-.7173913v-2.9714348c0-.3974347-.3221111-.7173913-.7222222-.7173913h-3.4883333v-1.8035217c0-.396-.3221111-.7173913-.7222222-.7173913-.3986667 0-.7222223.3213913-.7222223.7173913v1.8035217h-8.8371111v-5.4736956c6.8741111-.2080435 12.1911111-3.4764783 12.1911111-7.5584348 0-.3974348-.3235555-.7173913-.7222222-.7173913h-11.4688889v-9.0979565c0-.396-.3235555-.7173913-.7222222-.7173913h-3.6761111c.2137778-1.4118261 1.4415556-2.4965218 2.9206667-2.4965218.7323333 0 1.4401111.2769131 1.9918889.7833913.1415555.1276957.3365555.1922609.5185555.1879566.1921111-.007174.3726667-.0918261.5026667-.2324348l2.5624444-2.7691305c.2686667-.2926956.2498889-.7446521-.0433333-1.0129565-1.5267778-1.3974782-3.4926667-2.1679565-5.5322222-2.1679565-4.3694445 0-7.9531111 3.4190869-8.1842223 7.7076522h-7.7205555c.0101111-.1205218.0144444-.2424783.0144444-.3644348v-.0014348-.0086087-.0028696-.0071739c0-.528-.0794444-1.0387826-.2282222-1.5194348v-5.3244782l6.7282222-7.9171305c.0346667-.0401739.065-.0832173.0895556-.1305652.0953333-.0746087.1733333-.177913.221-.2998695l1.3808889-3.5439131c.0852222-.2223913.0563333-.4691739-.078-.6643043-.1343334-.1965652-.3582222-.3127826-.5965556-.3127826h-25.4901111c-.2383333 0-.4607778.1162174-.5951111.3127826-.1357778.1951304-.1646667.441913-.078.6643043l1.3808889 3.5439131c.0245555.0602608.0548889.1176521.0924444.1678695.0288889.0946957.0751111.185087.143.2625652l6.7296667 7.9171305v4.1436522l-4.2091111 3.0847826h-2.8903333c-.3986667 0-.7222223.3213913-.7222223.7173913v1.9283478l-1.9846666 1.4534348c-.6182223-.2568261-1.2971111-.4003044-2.0092223-.4003044-2.8715555 0-5.2072222 2.3214783-5.2072222 5.1752609s2.3356667 5.1752609 5.2072222 5.1752609c1.6033334 0 3.0376667-.7231305 3.9938889-1.8566087v3.1622608l-6.4508889 2.6457392c-.1025555.0258261-2.5364444.6858261-3.4478888 2.5610869-.4766667.9813913-.455 2.079.0678888 3.2655652.1588889.3572609.5748889.528.9374445.3759131l8.8934444-3.6400435v3.0015652h-1.8084444c-.3986667 0-.7222222.3199566-.7222222.7173913v2.9714348c0 .396.3235555.7173913.7222222.7173913h8.6305555c.598 3.0675652 2.9437778 5.498087 5.954 6.2943913h-26.468v-1.4620435c0-.396-.3221111-.7173913-.7222222-.7173913-.3986666 0-.7222222.3213913-.7222222.7173913v1.4620435h-3.822v-2.9843478c0-.3974348-.3221111-.7173913-.7222222-.7173913-.3986667 0-.7222222.3199565-.7222222.7173913v2.9843478h-8.9396667c.585-.5724782.949-1.365913.949-2.2454348v-6.8037391h.8377778c.4001111 0 .7222222-.3213913.7222222-.7173913v-2.9972609l.3365555-.0043043c.1921112-.0028696.377-.0803478.5113334-.2195217.1328889-.1377392.2051111-.3242609.2007778-.515087l-.5907778-24.0096522c2.3428889 1.1564348 4.9298889 2.2124348 7.6743333 3.0044348-.1184444 1.5452609-.1401111 3.1134783-.0303333 4.6788261.026.3773478.3437778.6671739.7193333.6671739h.0505556c.3986666-.0286956.6991111-.3701739.6716666-.7661739-.0996666-1.4089565-.0808889-2.8207826.0144445-4.2139565.3683333.0903913.728.1994348 1.1021111.2812174.2412222.0559565.4838889.0832174.741.0832174 1.599 0 3.0044444-1.1263044 3.341-2.6773044.1978889-.8866956.0346667-1.794913-.4593333-2.5625217-.4925556-.7676087-1.2581112-1.2956087-2.1536667-1.4907392-.4477778-.0961304-.8868889-.2094782-1.3245556-.3242608.6846667-2.2052609 1.5888889-4.2526957 2.6447778-6.1193479l3.3915556-.6384782c.3914444-.0746087.6485555-.4505218.5748889-.8379131-.0736667-.3902608-.4463334-.6413478-.845-.5724782l-2.1276667.4017391c.6788889-1.0574348 1.3967778-2.0517391 2.1363333-2.9843478l3.2326667-.2381739c.3972222-.0301305.6962222-.3744783.6658889-.7704783-.0303334-.3931304-.3697778-.6958696-.7727778-.6614348l-1.8474444.1363044c.7294444-.8336087 1.4675555-1.6055218 2.1955555-2.3200435l3.783.012913h.0028889c.3972222 0 .7207778-.3199565.7222222-.7145217.0014445-.3974348-.3221111-.7188261-.7207778-.7202609l-2.2591111-.0071739c.9056667-.8092174 1.7737778-1.5194348 2.5638889-2.1263478l3.3756667.924c.3827778.1004348.7814444-.119087.8883333-.5021739.1054445-.3816522-.1198889-.7776522-.5041111-.8823913l-2.2865555-.62413047c1.4993333-1.05743478 2.4844444-1.60408695 2.5205555-1.62273913.3495556-.19082608.4781111-.627.286-.97421739-.1906667-.34721739-.6297778-.47634782-.9793333-.28408695-.1415556.07747826-1.0717778.59113043-2.4555556 1.54095652l.5301111-2.07326087c.0982223-.38452174-.1372222-.77478261-.5228889-.87234783-.39-.10043478-.78.13343479-.8782222.51939131l-.9591111 3.75626087c-.8218889.62986954-1.7217778 1.36447824-2.6577778 2.20239134l-.0476666-2.24973917c-.0086667-.39169565-.3307778-.70304348-.7222223-.70304348h-.0158888c-.3986667.0086087-.715.33717392-.7063334.73317392l.0765556 3.54247823c-.9114445.8881305-1.8402222 1.8709565-2.7502222 2.9441739l-.2672223-2.6428695c-.039-.3945652-.3885555-.680087-.7901111-.6413479-.3972222.0387392-.6861111.3902609-.6471111.7833914l.3928889 3.9011739c.0072222.0616956.0202222.1190869.0404444.1750434-.6716666.8766522-1.3245555 1.8063913-1.9442222 2.7892174l-.5084444-2.3257826c-.0852222-.3873913-.4708889-.6356087-.8608889-.5480869-.3885556.0832174-.637.4663043-.5517778.8522608l.8392222 3.8323044c.0014445.0043043.0028889.0100435.0043334.0143478-1.0428889 1.8910435-1.9384445 3.9657391-2.6303334 6.1996957-3.4507777-1.0545653-6.5736666-2.5696957-9.1491111-4.0876957l-.0231111-.9326087c0-3.9097826-2.9726667-7.1638695-6.7672222-7.4077826-2.0337778-.1334348-3.9592222.5538261-5.43544446 1.9269131-1.45744444 1.3573043-2.29377777 3.2727391-2.29377777 5.2412608l-.80744445 33.2123478c-.00433333.1951305.07077778.3816522.20944445.5208261.13722222.1377392.32066666.1664348.52288889.2137826l.31344444-.0043043v2.7791739c0 .396.32355556.7173913.72222222.7173913h.51422222v6.8037391c0 .8795218.364 1.6729566.949 2.2454348h-4.86922222v-1.4620435c0-.396-.32211111-.7173913-.72222222-.7173913-.39866667 0-.72222222.3213913-.72222222.7173913v1.4620435h-2.496c-.39866667 0-.72222222.3199565-.72222222.7173913 0 .396.32355555.7173913.72222222.7173913h102.28544422c.398667 0 .722222-.3213913.722222-.7173913 0-.3974348-.323555-.7173913-.722222-.7173913z"/><path d="m60.4775899 61.5c0-1.6673777 1.3549499-3.0231375 3.0216713-3.0231375s3.0231489 1.3557598 3.0231489 3.0231375-1.3564275 3.0231375-3.0231489 3.0231375-3.0216713-1.3557598-3.0216713-3.0231375m7.5224101 0c0-2.481129-2.0183878-4.5-4.5007388-4.5-2.4808734 0-4.4992612 2.018871-4.4992612 4.5s2.0183878 4.5 4.4992612 4.5c2.482351 0 4.5007388-2.018871 4.5007388-4.5"/></g></svg>