<svg height="69" viewBox="0 0 94 69" width="94" xmlns="http://www.w3.org/2000/svg"><g fill="#bf5827" fill-rule="evenodd"><path d="m39.2278861 26.6993195c-.1796945.0287711-.336388.1280314-.4442047.2819568-.2170709.3092892-.155256.7437328.1394429.9681473 1.6991907 1.2961379 3.1123079 2.8008662 4.2048502 4.4767825-.7475289.0388409-1.4260552.0230168-2.0255159-.0503495-3.8555241-.474723-4.4046704-3.1705747-4.988318-6.0390529-.2702604-1.3263475-.5505838-2.6944131-1.2118593-3.7560665 1.0666662-.2028362 2.1247072-.2445543 3.1424965-.1208386 2.7974832.3438146 5.078884 1.9147164 6.100986 4.2020185.7058398 1.5752175.7187778 3.2784663.0402516 4.9356814-1.16442-1.7938778-2.6666657-3.3993049-4.4693604-4.7731247-.1408804-.1078916-.3061993-.1568025-.4887689-.1251543zm18.22533 6.7511376-.0589398-.0402796c-.9387238 1.3220319-1.8285707 2.5764516-3.4486959 2.5764516-.1336926 0-.2731355-.0086313-.4183286-.0273325-.5678345-.0676121-1.2233599-.2833953-1.9493255-.6387183 1.4576814-.9451305 2.8061086-1.4385548 3.3854435-1.4385548.0287511 0 .051752.0014385.0718778.0014385.3550762 0 .6540878-.2934651.672776-.6660508.0100629-.1927664-.0546271-.3740243-.1796944-.5121255-.1178796-.1294699-.2774483-.2042748-.4513925-.2114676-.8970347-.0431566-2.5013468.5739834-4.0309059 1.5392536.1178795-.881834.4830187-1.6716006 1.0623536-2.2901792.9876007-1.0544606 2.5300978-1.563709 4.1329723-1.3680655.9717876.1194 1.9234495.4804773 2.8276719 1.0746004-.6440249.5106869-1.1658576 1.2429113-1.6675645 1.9506802zm3.3063779-2.4484203c-1.3153633-1.1249498-2.817609-1.8197717-4.3486057-2.0082224-2.041329-.2459929-3.9547155.3999182-5.2485155 1.7809308-1.0379152 1.1091257-1.5640605 2.6109769-1.4835574 4.2307896-1.1557947.9221136-2.118957 1.9607501-2.8679235 3.0900156-.3680142-1.8212103-.9746627-3.5388447-1.8041322-5.1068694 1.2147344-2.2556539 1.3383642-4.714144.3478884-6.9266412-1.2190471-2.7203071-3.8871504-4.5832355-7.1403387-4.9817152-1.5209338-.1870121-3.1094328-.0474723-4.7194951.4186194-.2429469.0690507-.426954.2718869-.4801436.5293882-.051752.2560627.0345014.5164411.2271338.6804364.9315361.7897666 1.2420481 2.3218274 1.5726859 3.9502714.5922729 2.9001264 1.3283014 6.5080218 6.1196742 7.0978292.8596583.1050145 1.860197.1050145 2.9786152.0014386 2.5401608 4.8292283 2.2296488 9.9533604 1.5180588 13.4073304-.0790656.3754628.1495057.7437328.5074571.8199763.0230009.0057542.0416891.0086313.0603773.0100698.025876.0028771.0503145.0043157.0761905.0043157.310512 0 .5908353-.2301688.6584004-.5538436.3392632-1.6457066.682839-4.2250353.4010781-7.1798268.0071877-.0115085.0172506-.0244555.0244384-.0402796.6512127-1.4515017 1.7480676-2.8339529 3.1769979-4.0006208 1.1198558.6372798 2.1074565 1.0026727 3.0217419 1.1163185 2.6580403.3236748 4.0150928-1.5795331 5.10476-3.1130325.6555253-.9249907 1.2765494-1.7981935 2.0413289-2.0154152.2415094-.0704892.4255165-.2718869.4801436-.5279496.0546271-.2546242-.0316262-.5178798-.2242587-.6833136z"/><path d="m63.6344333 10.1084167h-34.9281111v-1.81562503c0-6.32333334 6.1071111-6.4225 6.3671111-6.42395834h22.1967778c6.2645556 0 6.3627778 6.164375 6.3642222 6.42395834zm-6.3642222 57.4335416h-22.1982222c-6.2645556 0-6.3642222-6.1658333-6.3656667-6.4254166v-6.243125h34.9281111v6.243125c0 6.3233333-6.1071111 6.4239583-6.3642222 6.4254166zm-28.5638889-14.126875h34.9281111v-41.8483333h-34.9281111zm28.5638889-53.0045833h-22.1982222c-.078 0-7.8101111.09041667-7.8101111 7.88229167v52.82375003c0 .07875.0895555 7.88375 7.8101111 7.88375h22.1982222c.0765556 0 7.8086667-.0904167 7.8086667-7.88375v-52.82375003c0-.07875-.0895556-7.88229167-7.8086667-7.88229167z"/><path d="m50.2898848 5h-7.5797696c-.3919836 0-.7101152.224-.7101152.5s.3181316.5.7101152.5h7.5797696c.3919836 0 .7101152-.224.7101152-.5s-.3181316-.5-.7101152-.5"/><path d="m46.5007308 62.5380117c-1.1240342 0-2.0390478-.9137427-2.0390478-2.0380117s.9150136-2.0380117 2.0390478-2.0380117c1.1240343 0 2.0375862.9137427 2.0375862 2.0380117s-.9135519 2.0380117-2.0375862 2.0380117m0-5.5380117c-1.9294215 0-3.5007308 1.5701754-3.5007308 3.5s1.5713093 3.5 3.5007308 3.5c1.9279599 0 3.4992692-1.5701754 3.4992692-3.5s-1.5713093-3.5-3.4992692-3.5"/><path d="m85.9894286 17.6624c-.2971429-.26064-.7471429-.2304-1.0071429.06912s-.2285714.75456.07 1.01664c4.7728572 4.19472 7.5114286 10.11024 7.5114286 16.2288 0 6.11712-2.7385714 12.03264-7.5128572 16.2288-.2971428.26208-.3285714.71712-.0685714 1.01664.1414286.16272.3385714.24624.5385714.24624.1671429 0 .3328572-.05904.47-.17712 5.0842858-4.46976 8.0014286-10.78128 8.0014286-17.31456 0-6.53472-2.9171428-12.8448-8.0028571-17.31456"/><path d="m81.1908625 22.1633315c-.3106569-.2518844-.7686205-.208456-1.026772.1027804-.2537761.3097889-.2085631.7657865.1035523 1.0176708 3.4507706 2.7982328 5.2738743 6.6749361 5.2738743 11.216093s-1.8231037 8.4178602-5.2738743 11.216093c-.3121154.2518844-.3573284.707882-.1035523 1.0176708.1458483.175161.3544113.2663605.5658914.2663605.1618916 0 .3252417-.0535616.4608806-.1635801 3.799348-3.080517 5.8091375-7.3466277 5.8091375-12.3365442 0-4.9899164-2.0097895-9.2560272-5.8091375-12.3365442"/><path d="m76.1415741 27.1324053c-.3252869-.2312997-.7798173-.1522479-1.0107129.1800625-.2294435.3323103-.1495739.7875902.1800695 1.0188899 2.0577303 1.450747 3.2368955 3.6993316 3.2368955 6.1689685s-1.1791652 4.7167575-3.2368955 6.1675045c-.3296434.2312997-.409513.6880435-.1800695 1.0188899.1408608.2049492.3673999.3132794.5953912.3132794.1437652 0 .2889826-.0439177.4153217-.1332169 2.4512695-1.7259644 3.8584259-4.4122618 3.8584259-7.3664569 0-2.9556591-1.4071564-5.6404926-3.8584259-7.3679209"/><path d="m1.39968436 34.5005512c0-6.1198368 2.68319493-12.0379842 7.36094007-16.2360078.29113435-.2621964.32052772-.7174385.06718485-1.0170916-.25474256-.3010936-.69564313-.3313471-.98817716-.0691507-4.98147665 4.4717452-7.83963212 10.7860684-7.83963212 17.3222501 0 6.5376224 2.85815547 12.8505049 7.8410318 17.3222501.13157033.1181325.29393372.1771987.45909647.1771987.19455613 0 .38911226-.0835571.52768101-.2463494.25334287-.299653.2239495-.7548951-.06858454-1.0170915-4.67634545-4.1980237-7.35954038-10.1147304-7.35954038-16.2360079"/><path d="m13.7323572 23.2838962c.3121154-.2533308.3573284-.7093262.1035523-1.0191135-.2552345-.3097874-.7161151-.3532155-1.026772-.1013324-3.79934801 3.0805023-5.8091375 7.3465927-5.8091375 12.3364852 0 4.9898926 2.00978949 9.2559829 5.8091375 12.3364852.1356389.1100179.298989.1635793.4623391.1635793.2100216 0 .4200431-.0911991.5644329-.2663592.2537761-.3097874.2085631-.7657828-.1035523-1.017666-3.4507706-2.7982194-5.27387426-6.6749041-5.27387426-11.2160393 0-4.5396876 1.82310366-8.4178199 5.27387426-11.2160393"/><path d="m18.6890693 28.3318548c.3296434-.2313161.409513-.6880921.1800695-1.018962-.2323478-.3337979-.685426-.4113912-1.0107129-.1800752-2.4527216 1.7260865-3.8584259 4.4125739-3.8584259 7.366978 0 2.9558682 1.4057043 5.6408916 3.8584259 7.3684421.1263391.0893056.2701043.1317623.4153217.1317623.2279913 0 .4530782-.1083379.5953912-.3118375.2294435-.3323339.1495739-.7876459-.1800695-1.018962-2.0577303-1.4508496-3.2368955-3.6995933-3.2368955-6.1694049 0-2.4698115 1.1791652-4.7170912 3.2368955-6.1679408"/></g></svg>