<svg height="175" viewBox="0 0 1280 175" width="1280" xmlns="http://www.w3.org/2000/svg"><path d="m1283 2910.77778c-32.28516 0-45.83833-5.9051-78.44635-29.58386-47.72279-34.65457-78.79785-48.19392-135.76914-48.19392-56.97351 0-88.055193 13.5364-135.78293 48.18084-32.633134 23.68762-46.202809 29.59694-78.517404 29.59694-32.314515 0-45.881928-5.90818-78.512807-29.59104-47.742353-34.65047-78.826736-48.18674-135.815812-48.18674-56.990175 0-88.079955 13.53897-135.814751 48.18853-32.626053 23.68249-46.188898 29.58925-78.485586 29.58925-32.343859 0-45.925517-5.91126-78.579261-29.59822-47.761913-34.64638-78.85562-48.17956-135.86249-48.17956-56.991309 0-88.082313 13.53331-135.8296085 48.17366-32.6559997 23.69171-46.2399206 29.60412-78.5838605 29.60412v97.22222c57.0079683 0 88.1070709-13.53589 135.861426-48.18136 32.648918-23.68657 46.226009-29.59642 78.552043-29.59642 32.343859 0 45.925517 5.91126 78.579261 29.59822 47.761912 34.64638 78.855619 48.17956 135.86249 48.17956 56.973515 0 88.055196-13.5364 135.782932-48.18084 32.633135-23.68762 46.202809-29.59694 78.517405-29.59694 32.314514 0 45.881927 5.90818 78.512806 29.59104 47.742353 34.65047 78.826736 48.18674 135.815813 48.18674 56.990175 0 88.079955-13.53897 135.814751-48.18853 32.626053-23.68249 46.188893-29.58925 78.485583-29.58925 32.28517 0 45.83834 5.9051 78.44635 29.58386 47.72279 34.65457 78.79785 48.19392 135.76914 48.19392z" fill="#eaf6fa" transform="translate(0 -2833)"/></svg>