<svg height="221" viewBox="0 0 222 221" width="222" xmlns="http://www.w3.org/2000/svg"><g fill="none" fill-rule="evenodd" stroke="#fff" stroke-width="3"><ellipse cx="111" cy="110.5" rx="109.5" ry="109"/><path d="m0 128.476562h145m-136.32042254-7.617187v7.109375m61.26760564-7.109375v7.109375m52.0774649-7.109375v7.109375m-107.21831-4.0625v4.0625m111.302817-4.0625v4.0625m-47.4823944-66.015625 5.1056338-5.078125m-5.1056338 5.078125-5.1056338-5.078125m5.1056338 14.21875 5.1056338-5.078125m-5.1056338 5.078125-5.1056338-5.078125m5.1056338 14.21875 5.1056338-5.078125m-5.1056338 5.078125-5.1056338-5.078125m5.1056338 14.21875 5.1056338-5.078125m-5.1056338 5.078125-5.1056338-5.078125m5.1056338 13.203125 5.1056338-5.078125m-5.1056338 5.078125-5.1056338-5.078125m5.1056338 14.21875 5.1056338-5.078125m-5.1056338 5.078125-5.1056338-5.078125m-12.7640845-30.46875v55.859375m.5105633-46.71875 5.1056338-5.078125m-5.1056338 5.078125-5.1056338-5.078125m5.1056338 15.234375 5.1056338-5.078125m-5.1056338 5.078125-5.1056338-5.078125m5.1056338 14.21875 5.1056338-5.078125m-5.1056338 5.078125-5.1056338-5.078125m-13.2746479-14.21875 5.1056338-5.078125m-5.1056338 5.078125-5.1056338-5.078125m5.1056338 15.234375 5.1056338-5.078125m-5.1056338 5.078125-5.1056338-5.078125m5.1056338 14.21875 5.1056338-5.078125m-5.1056338 5.078125-5.1056338-5.078125m5.6161972-23.359375v55.859375m-18.3802817-36.5625v37.578125m.5105634-28.4375 5.1056338-5.078125m-5.1056338 5.078125-5.1056338-5.078125m5.1056338 14.21875 5.1056338-5.078125m-5.1056338 5.078125-5.1056338-5.078125m5.1056338 15.234375 5.1056338-5.078125m-5.1056338 5.078125-5.1056338-5.078125m-17.35915492-21.328125 69.67540822-59.4070529 17.1869199 15.8918402 49.9686576-48.9066623m0 27.421875v-27.421875h-26.549296m-35.2288728 52.8125v74.140625m18.3802817-55.859375v55.859375m-.5105634-46.71875 5.1056335-5.078125m-5.1056335 5.078125-5.1056338-5.078125m5.1056338 15.234375 5.1056335-5.078125m-5.1056335 5.078125-5.1056338-5.078125m5.1056338 14.21875 5.1056335-5.078125m-5.1056335 5.078125-5.1056338-5.078125m23.4859153-45.703125 5.105634-5.078125m-6.126761 5.078125-5.105633-5.078125m6.12676 14.21875 5.105634-5.078125m-6.126761 5.078125-5.105633-5.078125m6.12676 14.21875 5.105634-5.078125m-6.126761 5.078125-5.105633-5.078125m6.12676 14.21875 5.105634-5.078125m-6.126761 5.078125-5.105633-5.078125m6.12676 13.203125 5.105634-5.078125m-6.126761 5.078125-5.105633-5.078125m6.12676 14.21875 5.105634-5.078125m-6.126761 5.078125-5.105633-5.078125m5.616197-48.75v88.359375m17.869718-79.21875 5.105634-5.078125m-5.105634 5.078125-5.105634-5.078125m5.105634 14.21875 5.105634-5.078125m-5.105634 5.078125-5.105634-5.078125m5.105634 14.21875 5.105634-5.078125m-5.105634 5.078125-5.105634-5.078125m5.105634 14.21875 5.105634-5.078125m-5.105634 5.078125-5.105634-5.078125m5.105634 13.203125 5.105634-5.078125m-5.105634 5.078125-5.105634-5.078125m5.105634 14.21875 5.105634-5.078125m-5.105634 5.078125-5.105634-5.078125m4.595071-48.75v88.359375" stroke-linecap="round" stroke-linejoin="round" transform="translate(39 45)"/></g></svg>