<svg height="20" viewBox="0 0 20 20" width="20" xmlns="http://www.w3.org/2000/svg"><path d="m952.974945 56.0000286 6.733138 6.7318565c.389342.3900137.389342 1.0218482 0 1.4112515l-1.564388 1.5643884c-.390014.3893423-1.021849.3893423-1.411252 0l-6.732467-6.7325279-6.731856 6.7331382c-.390014.3893424-1.021849.3893424-1.411252 0l-1.564388-1.5643883c-.389343-.3900137-.389343-1.0218482 0-1.4112515l6.732528-6.7324669-6.732528-6.7324668c-.389343-.3900138-.389343-1.0219092 0-1.4112516l1.563778-1.563778c.390013-.3893423 1.021848-.3893423 1.411251 0l6.732467 6.7325279 6.731857-6.7331382c.390013-.3893424 1.021848-.3893424 1.411251 0l1.564389 1.5643883c.389342.3900138.389342 1.0218482 0 1.4112516z" fill="#d23f61" transform="translate(-940 -46)"/></svg>