<svg height="35" viewBox="0 0 35 35" width="35" xmlns="http://www.w3.org/2000/svg"><g fill="none"><path d="m33.0689655 0h-31.13793102c-1.06648089 0-1.93103448.86455359-1.93103448 1.93103448v31.13793102c0 1.0664809.86455359 1.9310345 1.93103448 1.9310345h16.77586212v-13.5353448h-4.5560345v-5.2982759h4.5560345v-3.8982759c0-4.51982754 2.7637931-6.9818965 6.7948275-6.9818965 1.3584066-.00296243 2.7160289.06552297 4.0672414.20517241v4.72499999h-2.7758621c-2.1965517 0-2.625 1.037931-2.625 2.5706897v3.3732758h5.25l-.6818965 5.2982759h-4.5982759v13.5413793h8.9310345c1.0664809 0 1.9310345-.8645536 1.9310345-1.9310345v-31.13793102c0-1.06648089-.8645536-1.93103448-1.9310345-1.93103448z" fill="#4267b2"/><path d="m24.137931 35v-13.5353448h4.5681035l.6818965-5.2982759h-5.25v-3.3732759c0-1.5327586.4284483-2.5706896 2.625-2.5706896h2.8060345v-4.73103449c-1.3532145-.13986093-2.7128566-.20834661-4.0732758-.20527787-4.037069 0-6.7887931 2.46217442-6.7887931 6.98200196v3.8982759h-4.5560345v5.2982759h4.5560345v13.5353448z" fill="#fff"/></g></svg>