<svg height="160" viewBox="0 0 160 160" width="160" xmlns="http://www.w3.org/2000/svg"><g fill="none" fill-rule="evenodd" stroke="#fff"><circle cx="80" cy="80" r="78.5" stroke-width="3"/><g transform="translate(23 43)"><g stroke-width="2"><path d="m59.5706455 55.5237206 14.493334-14.9919693z"/><path d="m68.9300809 45.7271165 9.5488307.6774149z"/><path d="m66.3447437 48.4016098-.7060949-11.4475716z"/><path d="m63.2408681 51.6110017 13.9214706.6218891z"/><path d="m55.4987434 43.5764167-10.0011727-17.2222561z"/><path d="m48.9361059 32.4268336 3.0321629-8.6768336z"/><path d="m50.7197311 35.497411-10.617167-2.2395411z"/><path d="m52.8619201 39.1861758 4.0876277-12.741323z"/></g><path d="m75.4449099 55.5181681c-4.3799951 4.5309062-11.575176 4.6234493-16.0710148.2072963-4.494-4.4161529-4.5859395-11.6696749-.2059444-16.2005811 4.3799951-4.5309063 21.0008078-5.3082677 21.0008078-5.3082677s-.3438535 16.7706462-4.7238486 21.3015525z" stroke-width="3"/><path d="m55.6348138 43.8096251c-5.1633192 3.0465162-11.7995083 1.2974532-14.8224772-3.9071663-3.0248077-5.2046195.4725688-20.8018201.4725688-20.8018201s15.2012676 4.56052 18.2260753 9.7651395c1.5114845 2.6041606 1.8332726 5.5766424 1.1308552 8.2807494z" stroke-width="3"/><path d="m96.1282051 38.890625c0 20.166975-16.2391296 36.515625-36.2692307 36.515625s-36.2692308-16.34865-36.2692308-36.515625 16.2391297-36.515625 36.2692308-36.515625 36.2692307 16.34865 36.2692307 36.515625z" stroke-width="3"/><path d="m8.84615385 75.40625c-1.94671432 0-3.53846154-1.589971-3.53846154-3.5318209v-33.9051082c0-1.9418499 1.59174722-3.5318209 3.53846154-3.5318209 1.94671435 0 3.53846155 1.589971 3.53846155 3.5318209v33.9051082c0 1.9418499-1.5917472 3.5318209-3.53846155 3.5318209z" stroke-width="3"/><path d="m110.281117 74.8125c-1.944332 0-3.537527-1.570702-3.537527-3.4890184v-30.4282132c0-1.9201556 1.593195-3.4890184 3.537527-3.4890184 1.946201 0 3.539396 1.5688628 3.539396 3.4890184v30.4282132c0 1.9183164-1.593195 3.4890184-3.539396 3.4890184z" stroke-width="3"/><path d="m8.64957265.59375v33.4924338" stroke-linecap="round" stroke-linejoin="round" stroke-width="3"/><path d="m1.17948718 1.06508238v18.98690142c0 2.9189206 2.36306169 5.3071284 5.25309723 5.3071284h4.66880339c2.8881865 0 5.2512482-2.3882078 5.2512482-5.3071284v-19.22256761" stroke-linecap="round" stroke-linejoin="round" stroke-width="3"/><path d="m113.820513 40.96875v-40.375s-7.666667.95006588-7.666667 9.9654258v22.0643001h4.509279v4.7857935" stroke-linecap="round" stroke-linejoin="round" stroke-width="3"/></g></g></svg>