<svg height="35" viewBox="0 0 35 35" width="35" xmlns="http://www.w3.org/2000/svg"><g fill="none"><path d="m30.625 35h-26.25c-2.415 0-4.375-1.96-4.375-4.375v-26.25c0-2.415 1.96-4.375 4.375-4.375h26.25c2.415 0 4.375 1.96 4.375 4.375v26.25c0 2.415-1.96 4.375-4.375 4.375z" fill="#1da1f2"/><path d="m6.83006897 18.0679513c8.19434483 0 12.67820693-6.9396552 12.67820693-12.94751519 0-.19523327 0-.39046654-.0086897-.5856998.8689655-.63894523 1.6249655-1.44650102 2.2245517-2.36054767-.7994482.36384381-1.6597241.60344828-2.5634482.71881339.9211034-.55907708 1.6249655-1.45537526 1.963862-2.52028398-.8602758.52358012-1.8161379.89629818-2.8328276 1.10040568-.8168275-.88742393-1.9725517-1.43762677-3.249931-1.43762677-2.4591724 0-4.4577931 2.04107505-4.4577931 4.55248478 0 .35496958.0434483.70106491.1129655 1.03828601-3.70179309-.18635903-6.98648274-2.00557809-9.1849655-4.75659229-.38234483.67444219-.59958621 1.45537525-.59958621 2.28955375 0 1.5796146.79075862 2.97287018 1.98124138 3.7893002-.72993103-.02662272-1.41641379-.23073022-2.016-.56795132v.06211968c0 2.20081136 1.53806897 4.04665313 3.57144828 4.46374243-.37365517.1064908-.76468966.1597363-1.17310345.1597363-.28675862 0-.56482759-.0266227-.8342069-.0798682.56482759 1.8103448 2.21586207 3.1237323 4.16234483 3.1592292-1.52937931 1.2246451-3.4497931 1.9523327-5.53531034 1.9523327-.35627587 0-.71255173-.0177485-1.06013793-.0621197 1.96386206 1.2778905 4.31006896 2.0322008 6.82137931 2.0322008" fill="#fff" transform="translate(6.637931 8.448276)"/></g></svg>