<svg xmlns="http://www.w3.org/2000/svg" viewBox="0 0 146.1 146.1"><path d="M72.9 146.1c-17.6 0-34.3-6.2-47.7-17.9-14.7-12.8-23.6-30.5-25-50C-2.7 38 27.7 3 67.9.2c19.5-1.4 38.3 4.9 53 17.7 14.7 12.8 23.6 30.5 25 50 2.9 40.2-27.5 75.2-67.7 78-1.7.1-3.5.2-5.3.2zM68.2 5.5C31 8.2 2.9 40.6 5.5 77.8c1.3 18 9.5 34.5 23.2 46.3 13.7 11.8 31.1 17.7 49.1 16.4 18-1.3 34.5-9.5 46.3-23.2 11.8-13.7 17.7-31.1 16.4-49.1-1.3-18-9.5-34.5-23.2-46.3-13.6-11.8-31-17.7-49.1-16.4z"/><path d="M50.1 52.7c-.7 0-1.4-.3-1.9-.8L35.3 39.1c-1-1-1-2.7 0-3.8 1-1 2.7-1 3.8 0L52 48.2c1 1 1 2.7 0 3.8-.6.5-1.3.7-1.9.7zM37.2 111.5c-.7 0-1.4-.3-1.9-.8-1-1-1-2.7 0-3.8l12.8-12.8c1-1 2.7-1 3.8 0 1 1 1 2.7 0 3.8l-12.8 12.8c-.5.6-1.2.8-1.9.8z"/><path d="M73 105.2c-8.6 0-16.6-3.3-22.7-9.4-6.1-6.1-9.4-14.1-9.4-22.7C41 55.4 55.4 41 73 40.9c8.5 0 16.6 3.3 22.7 9.4 6.1 6.1 9.4 14.1 9.4 22.7s-3.3 16.6-9.4 22.7c-6 6.1-14 9.4-22.7 9.5.1 0 .1 0 0 0zm0-58.9c-14.7 0-26.7 12-26.7 26.7 0 7.2 2.8 13.9 7.9 19 5.1 5 11.8 7.8 18.9 7.8 7.1 0 13.9-2.8 18.9-7.9 5-5.1 7.8-11.8 7.8-18.9 0-7.1-2.8-13.9-7.9-18.9-5-5-11.7-7.8-18.9-7.8z"/><path d="M96 52.7c-.7 0-1.4-.3-1.9-.8-1-1-1-2.7 0-3.8l12.8-12.8c1-1 2.7-1 3.8 0 1 1 1 2.7 0 3.8L97.9 52c-.5.5-1.2.7-1.9.7zM40.5 75.7H22.4c-1.5 0-2.7-1.2-2.7-2.7 0-1.5 1.2-2.7 2.7-2.7h18.1c1.5 0 2.7 1.2 2.7 2.7 0 1.5-1.2 2.7-2.7 2.7zM123.7 75.7h-18.1c-1.5 0-2.7-1.2-2.7-2.7 0-1.5 1.2-2.7 2.7-2.7h18.1c1.5 0 2.7 1.2 2.7 2.7 0 1.5-1.2 2.7-2.7 2.7zM108.8 111.5c-.7 0-1.4-.3-1.9-.8l-14-14c-1-1-1-2.7 0-3.8 1-1 2.7-1 3.8 0l14 14c1 1 1 2.7 0 3.8-.5.6-1.2.8-1.9.8zM73 126.4c-1.5 0-2.7-1.2-2.7-2.7v-18.2c0-1.5 1.2-2.7 2.7-2.7 1.5 0 2.7 1.2 2.7 2.7v18.2c0 1.5-1.2 2.7-2.7 2.7zM73 43.2c-1.5 0-2.7-1.2-2.7-2.7V22.4c0-1.5 1.2-2.7 2.7-2.7 1.5 0 2.7 1.2 2.7 2.7v18.1c0 1.5-1.2 2.7-2.7 2.7z"/></svg>