<svg xmlns="http://www.w3.org/2000/svg" viewBox="0 0 93.2 93.2"><path d="M46.6 93.2C20.9 93.2 0 72.3 0 46.6 0 20.9 20.9 0 46.6 0s46.6 20.9 46.6 46.6c0 25.7-20.9 46.6-46.6 46.6zm0-89.8C22.8 3.4 3.4 22.8 3.4 46.6c0 23.8 19.4 43.2 43.2 43.2 23.8 0 43.2-19.4 43.2-43.2 0-23.8-19.4-43.2-43.2-43.2z"/><path d="M46.7 40.4c-.3 0-.7-.1-.9-.2-3.5-2.1-6-5.3-7.1-9.2-1.8-7.6 3.5-14.4 6.8-17.8.3-.3.8-.5 1.2-.5.5 0 .9.2 1.2.5 3.3 3.4 8.6 10.2 6.8 17.7v.1c-1.1 3.9-3.6 7.2-7.1 9.2-.3.1-.6.2-.9.2zm0-23.5C44 20 40.8 25 42 30.1c.7 2.7 2.4 5 4.7 6.6 2.3-1.6 3.9-3.9 4.7-6.6 1.2-5.2-2.3-10.4-4.7-13.2zM53.5 56.6c-1.2 0-2.3-.1-3.5-.4-.6-.2-1.1-.6-1.2-1.2-.9-3.5-.4-7.1 1.3-10.3v-.1c2.7-4.3 8.2-6.8 15.2-6.9.4 0 .9.2 1.2.5.3.3.5.8.5 1.2 0 7.1-2.5 12.6-6.8 15.3-2 1.3-4.3 1.9-6.7 1.9zm-1.6-3.5c2.3.4 4.7-.1 6.7-1.2 3.8-2.4 4.8-7.4 5.1-10.6-3.2.3-8.2 1.3-10.6 5.1-1.2 2-1.6 4.4-1.2 6.7zM53.5 77.3c-1.2 0-2.3-.1-3.5-.4-.6-.2-1.1-.6-1.2-1.2-.9-3.5-.4-7.1 1.3-10.3v-.1c2.7-4.3 8.2-6.8 15.2-6.9.4 0 .9.2 1.2.5.3.3.5.8.5 1.2 0 3.3-.7 11.5-6.8 15.3-2 1.3-4.3 1.9-6.7 1.9zm-1.6-3.5c2.3.4 4.7-.1 6.7-1.2 3.8-2.4 4.8-7.4 5.1-10.6-3.2.3-8.2 1.3-10.6 5.1-1.2 2.1-1.6 4.4-1.2 6.7zM39.7 56.6c-2.4 0-4.7-.6-6.8-1.8-5.9-3.7-6.8-11.2-6.9-15.3 0-.5.2-.9.5-1.2.3-.3.8-.5 1.2-.5 4.2 0 11.7 1 15.3 6.9 1.8 3.2 2.3 6.8 1.4 10.3-.2.6-.6 1.1-1.2 1.2-1.2.2-2.3.4-3.5.4zM29.5 41.2c.3 3.2 1.3 8.3 5.2 10.6 2 1.1 4.4 1.5 6.7 1.2.4-2.3-.1-4.7-1.2-6.7-2.4-3.7-7.4-4.8-10.7-5.1zM39.7 77.3c-2.4 0-4.7-.6-6.8-1.8-5.9-3.7-6.8-11.1-6.9-15.3 0-.5.2-.9.5-1.2s.8-.5 1.2-.5c4.2 0 11.7 1 15.3 6.9 1.8 3.2 2.3 6.8 1.4 10.3-.2.6-.6 1.1-1.2 1.2-1.2.3-2.3.4-3.5.4zM29.5 62c.3 3.2 1.3 8.3 5.2 10.7 2 1.1 4.3 1.5 6.7 1.2.4-2.3-.1-4.7-1.2-6.7-2.4-3.9-7.4-4.9-10.7-5.2z"/></svg>