<svg viewBox="0 0 146.1 146.1" xmlns="http://www.w3.org/2000/svg"><path d="m72.9 146.1c-17.6 0-34.3-6.2-47.7-17.9-14.7-12.8-23.6-30.5-25-50-2.9-40.2 27.5-75.2 67.7-78 19.5-1.4 38.3 4.9 53 17.7s23.6 30.5 25 50c2.9 40.2-27.5 75.2-67.7 78-1.7.1-3.5.2-5.3.2zm-4.7-140.6c-37.2 2.7-65.3 35.1-62.7 72.3 1.3 18 9.5 34.5 23.2 46.3s31.1 17.7 49.1 16.4 34.5-9.5 46.3-23.2 17.7-31.1 16.4-49.1-9.5-34.5-23.2-46.3c-13.6-11.8-31-17.7-49.1-16.4z"/><path d="m50.1 52.7c-.7 0-1.4-.3-1.9-.8l-12.9-12.8c-1-1-1-2.7 0-3.8 1-1 2.7-1 3.8 0l12.9 12.9c1 1 1 2.7 0 3.8-.6.5-1.3.7-1.9.7zm-12.9 58.8c-.7 0-1.4-.3-1.9-.8-1-1-1-2.7 0-3.8l12.8-12.8c1-1 2.7-1 3.8 0 1 1 1 2.7 0 3.8l-12.8 12.8c-.5.6-1.2.8-1.9.8z"/><path d="m73 105.2c-8.6 0-16.6-3.3-22.7-9.4s-9.4-14.1-9.4-22.7c.1-17.7 14.5-32.1 32.1-32.2 8.5 0 16.6 3.3 22.7 9.4s9.4 14.1 9.4 22.7-3.3 16.6-9.4 22.7c-6 6.1-14 9.4-22.7 9.5.1 0 .1 0 0 0zm0-58.9c-14.7 0-26.7 12-26.7 26.7 0 7.2 2.8 13.9 7.9 19 5.1 5 11.8 7.8 18.9 7.8s13.9-2.8 18.9-7.9 7.8-11.8 7.8-18.9-2.8-13.9-7.9-18.9c-5-5-11.7-7.8-18.9-7.8z"/><path d="m96 52.7c-.7 0-1.4-.3-1.9-.8-1-1-1-2.7 0-3.8l12.8-12.8c1-1 2.7-1 3.8 0 1 1 1 2.7 0 3.8l-12.8 12.9c-.5.5-1.2.7-1.9.7zm-55.5 23h-18.1c-1.5 0-2.7-1.2-2.7-2.7s1.2-2.7 2.7-2.7h18.1c1.5 0 2.7 1.2 2.7 2.7s-1.2 2.7-2.7 2.7zm83.2 0h-18.1c-1.5 0-2.7-1.2-2.7-2.7s1.2-2.7 2.7-2.7h18.1c1.5 0 2.7 1.2 2.7 2.7s-1.2 2.7-2.7 2.7zm-14.9 35.8c-.7 0-1.4-.3-1.9-.8l-14-14c-1-1-1-2.7 0-3.8 1-1 2.7-1 3.8 0l14 14c1 1 1 2.7 0 3.8-.5.6-1.2.8-1.9.8zm-35.8 14.9c-1.5 0-2.7-1.2-2.7-2.7v-18.2c0-1.5 1.2-2.7 2.7-2.7s2.7 1.2 2.7 2.7v18.2c0 1.5-1.2 2.7-2.7 2.7zm0-83.2c-1.5 0-2.7-1.2-2.7-2.7v-18.1c0-1.5 1.2-2.7 2.7-2.7s2.7 1.2 2.7 2.7v18.1c0 1.5-1.2 2.7-2.7 2.7z"/></svg>