<svg xmlns="http://www.w3.org/2000/svg" viewBox="0 0 294.2 294.2"><path d="M147.1 294.2C66 294.2 0 228.2 0 147.1S66 0 147.1 0s147.1 66 147.1 147.1-66 147.1-147.1 147.1zm0-285.5C70.8 8.7 8.7 70.8 8.7 147.1s62.1 138.4 138.4 138.4c76.3 0 138.4-62.1 138.4-138.4S223.4 8.7 147.1 8.7z"/><path d="M228.7 154.7c-7.3 9.8-14.1 19.1-28 17.4-5.2-.8-10.2-2.4-14.9-4.9 11-6.9 21.3-10.4 25.4-10.2 2.3.1 4.3-1.7 4.5-4 .1-2.3-1.7-4.3-4-4.5-5.9-.3-17.4 3.5-29.3 10.8.6-6.3 3.3-12.3 7.8-16.8 7.1-7.2 18.3-10.7 29.8-9.3 7.5 1 14.7 3.7 21 7.9-4.8 3.5-8.6 8.6-12.3 13.6m-94.6-12.1c-8.8-12.9-19.8-24.2-32.5-33.3-1.9-1.4-4.5-1-5.9.9-1.4 1.9-1 4.5.9 5.9 12 8.6 22.4 19.3 30.8 31.5-5.1.3-10.3.2-15.4-.4-27.9-3.4-31.9-22-36.2-41.6-2-9.3-4.1-18.8-9.2-26.1 7.7-1.5 15.5-1.8 23.3-.8 20.1 2.5 36.6 13.4 44.1 29.1 5.2 11.2 5.2 23.3.1 34.8m117.7-4c-9.4-7.6-20-12.4-30.8-13.7-14.4-1.8-27.9 2.5-36.9 11.8-7.4 7.5-11 17.6-10.3 28.6-8.2 6.1-15.3 13.5-21.1 21.9-2.6-12.6-7.1-24.8-13.4-36.1 8.6-15.2 9.5-31.8 2.3-46.9C133 85.8 114 73.1 91 70.3c-11.2-1.3-22.6-.4-33.4 2.6-2.3.6-3.6 2.9-3 5.2.2.9.7 1.6 1.4 2.2 6.8 5.5 9.1 16 11.6 27.2 4.3 19.6 9.7 44 43.5 48.2 7.1.8 14.3.8 21.5.1 18.9 33.8 16.3 69.7 11.6 91.9-.5 2.3 1 4.5 3.3 5l.4.1c2.2.3 4.2-1.2 4.7-3.3 3.4-16 4.2-32.5 2.5-48.8.1-.1.2-.2.2-.4 5.3-11.3 13.9-20.5 22.9-27.5 8 4.4 15.2 7 21.7 7.8 18.7 2.3 28.2-10.5 35.8-20.8 4.7-6.3 9.1-12.3 14.8-13.8 2.3-.6 3.6-2.9 3-5.2-.4-.9-.9-1.7-1.7-2.2"/></svg>