<svg xmlns="http://www.w3.org/2000/svg" viewBox="0 0 20.12 20.12"><g data-name="Слой 2"><path d="M19.72 17.76l-5.83-5.83a7.43 7.43 0 0 0 1.34-4.31 7.46 7.46 0 0 0-.6-3A7.65 7.65 0 0 0 13 2.22 7.54 7.54 0 0 0 10.57.6a7.58 7.58 0 0 0-5.91 0A7.4 7.4 0 0 0 .6 4.66a7.58 7.58 0 0 0 0 5.91A7.54 7.54 0 0 0 2.22 13a7.65 7.65 0 0 0 2.44 1.62 7.46 7.46 0 0 0 3 .6 7.43 7.43 0 0 0 4.31-1.34l5.83 5.82a1.31 1.31 0 0 0 1 .41 1.39 1.39 0 0 0 1-2.36m-12.1-5.3A4.67 4.67 0 0 1 4.19 11a4.66 4.66 0 0 1-1.42-3.38 4.67 4.67 0 0 1 1.42-3.43 4.67 4.67 0 0 1 3.43-1.42A4.66 4.66 0 0 1 11 4.19a4.67 4.67 0 0 1 1.42 3.43A4.66 4.66 0 0 1 11 11a4.66 4.66 0 0 1-3.42 1.42" data-name="Слой 1"/></g></svg>