<svg viewBox="0 0 20.12 20.12" xmlns="http://www.w3.org/2000/svg"><path d="m19.72 17.76-5.83-5.83a7.43 7.43 0 0 0 1.34-4.31 7.46 7.46 0 0 0 -.6-3 7.65 7.65 0 0 0 -1.63-2.4 7.54 7.54 0 0 0 -2.43-1.62 7.58 7.58 0 0 0 -5.91 0 7.4 7.4 0 0 0 -4.06 4.06 7.58 7.58 0 0 0 0 5.91 7.54 7.54 0 0 0 1.62 2.43 7.65 7.65 0 0 0 2.44 1.62 7.46 7.46 0 0 0 3 .6 7.43 7.43 0 0 0 4.31-1.34l5.83 5.82a1.31 1.31 0 0 0 1 .41 1.39 1.39 0 0 0 1-2.36m-12.1-5.3a4.67 4.67 0 0 1 -3.51-1.45 4.66 4.66 0 0 1 -1.42-3.38 4.67 4.67 0 0 1 1.42-3.43 4.67 4.67 0 0 1 3.43-1.42 4.66 4.66 0 0 1 3.38 1.42 4.67 4.67 0 0 1 1.42 3.43 4.66 4.66 0 0 1 -1.42 3.38 4.66 4.66 0 0 1 -3.42 1.42"/></svg>