<svg viewBox="0 0 99 99" xmlns="http://www.w3.org/2000/svg"><g fill="#403b33"><path d="m49.5 99c-27.3 0-49.5-22.2-49.5-49.5s22.2-49.5 49.5-49.5 49.5 22.2 49.5 49.5-22.2 49.5-49.5 49.5zm0-95.7c-25.5 0-46.2 20.7-46.2 46.2 0 25.4 20.8 46.2 46.2 46.2 25.5 0 46.2-20.7 46.2-46.2s-20.7-46.2-46.2-46.2z"/><path d="m64 37.2c-2.4 0-4.5-.9-6.1-2.6-1.6-1.6-2.5-3.8-2.5-6.1h1.7-1.7c0-4.7 4-8.6 8.7-8.5 4.7 0 8.6 3.9 8.5 8.7 0 2.3-.9 4.4-2.6 6.1-1.6 1.5-3.7 2.4-6 2.4zm0-13.9c-2.9 0-5.3 2.3-5.3 5.3 0 1.4.5 2.8 1.5 3.8s2.3 1.6 3.7 1.6 2.8-.5 3.8-1.5 1.6-2.3 1.6-3.7c0-3.1-2.3-5.5-5.3-5.5zm-29 13.9c-.1 0-.1 0 0 0-2.4 0-4.5-.9-6.1-2.6s-2.5-3.8-2.5-6.1h1.6-1.6c0-2.3.9-4.4 2.6-6.1s3.8-2.5 6.1-2.5 4.4.9 6.1 2.6c1.6 1.6 2.5 3.8 2.5 6.1-.2 4.8-4 8.6-8.7 8.6zm0-13.9c-1.4 0-2.7.5-3.7 1.5s-1.6 2.3-1.6 3.7.5 2.8 1.5 3.8 2.3 1.6 3.7 1.6h.1c2.9 0 5.3-2.3 5.3-5.3 0-2.9-2.4-5.3-5.3-5.3z"/><path d="m30.9 78.7c-1.6 0-3.1-.6-4.3-1.7-1.3-1.3-2-3-2-4.7v-20.2l-8.5-8.5-.3-.3c-1.2-1.3-1.8-2.9-1.8-4.6.1-1.7.8-3.3 2-4.4 2.6-2.4 6.6-2.3 9 .3l7.2 7.2c.7.7 1.6 1.1 2.6 1.1s2-.4 2.7-1.1l7.2-7.2c1.3-1.5 3.3-2.2 5.3-1.9 1.5.1 2.9.8 4 1.8l7.2 7.2c.7.7 1.6 1.1 2.6 1.1s2-.4 2.7-1.1l7.3-7.3c2.5-2.5 6.5-2.5 9 0 1.2 1.2 1.9 2.9 1.9 4.7 0 1.6-.7 3.2-1.9 4.3l-8.2 8.2c1.1 4.8 2.3 9.5 3.4 14.3.2 1 0 2-.6 2.8-.5.8-1.4 1.2-2.4 1.3h-.5v2.3c0 3.5-2.7 6.3-6.2 6.4-1.5.1-3-.4-4.2-1.4-2.4 1.9-6 1.8-8.3-.3-1.3-1.3-2-3-2-4.7v-2.3h-.6c-.2 0-.5 0-.7-.1-.9-.2-1.6-.7-2.1-1.5-.5-.7-.6-1.6-.4-2.5l3.4-14.2-3.8-3.8-4.3 4.1v20.3c0 3.5-2.7 6.3-6.2 6.4-1.5.1-3-.4-4.2-1.4-1.1.9-2.4 1.4-3.8 1.4zm-10.5-42.9c-.8 0-1.5.3-2.1.8-.6.6-.9 1.3-1 2.1 0 .8.3 1.6.8 2.2l.2.2 9.1 9.1c.3.3.5.7.5 1.2v20.9c0 .9.4 1.7 1 2.3.6.5 1.4.8 2.2.8s1.6-.4 2.2-1c.1-.1.3-.3.4-.5.3-.5.8-.8 1.4-.8s1.1.3 1.4.8c.1.2.3.4.5.6.6.6 1.4.9 2.2.9 1.7 0 3-1.4 3-3v-21.1c0-.4.2-.9.5-1.2l5.8-5.8c.3-.3.7-.5 1.2-.5.4 0 .9.2 1.2.5l5.6 5.6c.4.4.6 1 .4 1.5l-3.6 15h2.2c.9 0 1.7.7 1.7 1.7v4c0 .9.4 1.7 1 2.3 1.2 1.1 3.2 1.1 4.4-.2.1-.1.2-.3.3-.4.3-.5.8-.8 1.4-.8s1.1.3 1.4.8c.1.2.3.5.5.7.6.5 1.3.8 2.1.8 1.7 0 3-1.4 3-3v-4.1c0-.9.7-1.7 1.7-1.7h2c-1.2-5-2.4-10.1-3.6-15.2-.1-.6 0-1.1.4-1.5l8.9-8.9c.6-.5.9-1.3.9-2 0-.9-.3-1.7-.9-2.3-1.2-1.2-3.1-1.2-4.3 0l-7.3 7.4c-1.3 1.3-3.2 2.1-5.1 2.1s-3.7-.8-5-2.1l-7.2-7.2c-.5-.5-1.2-.8-1.9-.9h-.2c-.9-.1-1.9.2-2.5.9l-7.3 7.3c-1.3 1.4-3.2 2.1-5.1 2.1s-3.7-.8-4.9-2.1l-7.2-7.2c-.6-.6-1.4-1-2.2-1 0-.1-.1-.1-.1-.1z"/></g></svg>