<svg viewBox="0 0 99 99" xmlns="http://www.w3.org/2000/svg"><g fill="#403b33"><path d="m49.5 99h-.5c-13.2-.1-25.6-5.4-34.9-14.9-9.2-9.4-14.2-21.9-14.1-35.1s5.4-25.6 14.9-34.9 21.9-14.2 35.1-14.1 25.6 5.4 34.9 14.9c9.2 9.4 14.2 21.9 14.1 35.1s-5.4 25.6-14.9 34.9c-9.3 9.1-21.6 14.1-34.6 14.1zm0-95.7c-12.2 0-23.6 4.7-32.3 13.2-8.9 8.6-13.8 20.2-13.9 32.5-.1 12.4 4.6 24 13.2 32.8s20.2 13.7 32.5 13.9h.5c12.2 0 23.6-4.7 32.3-13.2 8.8-8.6 13.7-20.2 13.9-32.5.1-12.3-4.6-24-13.2-32.8-8.6-8.9-20.2-13.8-32.5-13.9h-.5z"/><path d="m78.9 38.3h-58.8c-.7 0-1.4-.5-1.6-1.2s0-1.4.6-1.8l29.4-20.2c.6-.4 1.3-.4 1.9 0l29.4 20.2c.6.4.9 1.2.6 1.8-.2.8-.8 1.2-1.5 1.2zm-53.4-3.3h48.1l-24-16.5z"/><path d="m26.1 35.7h3.3v30.8h-3.3zm14.5 0h3.3v30.8h-3.3zm14.5 0h3.3v30.8h-3.3zm14.5 0h3.3v30.8h-3.3z"/><path d="m76.5 68.1h-54c-.9 0-1.6-.7-1.6-1.7s.7-1.7 1.6-1.7h54c.9 0 1.7.7 1.7 1.7s-.8 1.7-1.7 1.7zm3.2 6.6h-60.4c-.9 0-1.6-.7-1.6-1.7s.7-1.7 1.6-1.7h60.4c.9 0 1.7.7 1.7 1.7s-.8 1.7-1.7 1.7z"/></g></svg>