<svg viewBox="0 0 99 99" xmlns="http://www.w3.org/2000/svg"><g fill="#403b33"><path d="m49.5 99c-27.3 0-49.5-22.2-49.5-49.5s22.2-49.5 49.5-49.5 49.5 22.2 49.5 49.5-22.2 49.5-49.5 49.5zm0-95.7c-25.5 0-46.2 20.7-46.2 46.2 0 25.4 20.8 46.2 46.2 46.2 25.5 0 46.2-20.7 46.2-46.2s-20.7-46.2-46.2-46.2z"/><path d="m50 39.6c-.9 0-1.6-.7-1.6-1.5-1-12.3-11.8-12.5-12.3-12.5-.9 0-1.6-.7-1.6-1.6s.7-1.6 1.6-1.6c.1 0 14.4.2 15.6 15.5.1.9-.6 1.7-1.5 1.8-.1-.1-.2-.1-.2-.1z"/><path d="m59.8 80.9c-.6 0-1.2-.1-1.8-.2-1.1-.2-2.1-.5-3.1-.8s-1.9-.6-2.8-.7c-2-.3-4-.3-6 .2-.5.1-1 .3-1.5.4-1.7.5-3.6 1-5.5 1-2.9-.1-5.6-1.2-7.6-3.3-2.9-3.1-5-7-6.1-11.1-.3-1-.6-2.1-.8-3.3s-.4-2.4-.6-3.5c-.1-1.2-.2-2.3-.3-3.5-.2-3.5.2-7.1 1.2-10.5 1.8-5.9 6-9.8 11.7-10.6 3.7-.6 7.6.1 10.9 1.8l.9.6c.4.3.9.7 1.1.6.3 0 .8-.4 1.2-.7l.9-.6c4.5-2.4 9.7-2.7 14.4-.9 3.9 1.6 6.8 5 8 9.7.6 2.2 1 4.5 1.1 6.8.1 1.8 0 3.7-.1 5.5-.3 4.8-1.5 9.5-3.6 13.8-.9 1.7-2 3.4-3.2 4.8-2.3 3-5.3 4.5-8.4 4.5zm-10.2-5.3c1 0 2 .1 3 .3 1.1.2 2.2.5 3.2.8.9.3 1.8.6 2.7.7 3.5.6 6.1-1.7 7.3-3.1 1.1-1.3 2-2.6 2.8-4.1 1.9-3.9 3-8.2 3.3-12.5.1-1.7.2-3.5.1-5.2-.1-2.1-.4-4.1-.9-6.1-.6-2.1-2.1-5.9-6-7.5-3.8-1.4-8-1.2-11.6.7-.2.1-.4.3-.6.4-.8.6-1.7 1.2-3 1.3-1.4.1-2.4-.7-3.2-1.2-.2-.1-.4-.3-.6-.4-2.7-1.4-5.8-1.9-8.9-1.5-4.4.6-7.7 3.5-9 8.2-.9 3.1-1.2 6.2-1.1 9.4 0 1.1.1 2.2.3 3.3.1 1.1.3 2.2.5 3.3s.5 2.1.8 3.1c.9 3.6 2.8 7 5.3 9.7 1.4 1.4 3.2 2.2 5.2 2.3 1.5 0 3-.4 4.6-.9.5-.1 1.1-.3 1.6-.4 1.3-.4 2.8-.6 4.2-.6zm6.1-43.7h-.7c-.9-.1-1.5-.8-1.5-1.6 0-5.1 1.5-9 4.4-11.8 4.6-4.3 11.1-3.9 11.3-3.9.9.1 1.5.8 1.5 1.6 0 5.1-1.5 9-4.4 11.8-3.7 3.6-8.8 3.9-10.6 3.9zm11.8-14c-1.8.2-4.9.8-7.3 3-1.9 1.8-3 4.4-3.3 7.6 1.9-.2 4.9-.8 7.3-3 1.9-1.7 3-4.3 3.3-7.6z"/></g></svg>