<svg version="1.1" id="Слой_1" xmlns="http://www.w3.org/2000/svg" x="0" y="0" viewBox="0 0 99 99" xml:space="preserve"><style>.st0{fill:#403b33}</style><g id="Слой_2_1_"><g id="Слой_1-2"><path class="st0" d="M49.5 99H49c-13.2-.1-25.6-5.4-34.9-14.9C4.9 74.7-.1 62.2 0 49s5.4-25.6 14.9-34.9S36.8-.1 50 0c13.2.1 25.6 5.4 34.9 14.9C94.1 24.3 99.1 36.8 99 50c-.1 13.2-5.4 25.6-14.9 34.9C74.8 94 62.5 99 49.5 99zm0-95.7C37.3 3.3 25.9 8 17.2 16.5 8.3 25.1 3.4 36.7 3.3 49c-.1 12.4 4.6 24 13.2 32.8 8.6 8.8 20.2 13.7 32.5 13.9h.5c12.2 0 23.6-4.7 32.3-13.2 8.8-8.6 13.7-20.2 13.9-32.5.1-12.3-4.6-24-13.2-32.8C73.9 8.3 62.3 3.4 50 3.3h-.5z"/><path class="st0" d="M78.9 38.3H20.1c-.7 0-1.4-.5-1.6-1.2s0-1.4.6-1.8l29.4-20.2c.6-.4 1.3-.4 1.9 0l29.4 20.2c.6.4.9 1.2.6 1.8-.2.8-.8 1.2-1.5 1.2zM25.5 35h48.1l-24-16.5L25.5 35z"/><path class="st0" d="M26.1 35.7h3.3v30.8h-3.3zM40.6 35.7h3.3v30.8h-3.3zM55.1 35.7h3.3v30.8h-3.3zM69.6 35.7h3.3v30.8h-3.3z"/><path class="st0" d="M76.5 68.1h-54c-.9 0-1.6-.7-1.6-1.7s.7-1.7 1.6-1.7h54c.9 0 1.7.7 1.7 1.7s-.8 1.7-1.7 1.7zM79.7 74.7H19.3c-.9 0-1.6-.7-1.6-1.7s.7-1.7 1.6-1.7h60.4c.9 0 1.7.7 1.7 1.7s-.8 1.7-1.7 1.7z"/></g></g></svg>