<svg version="1.1" id="Слой_1" xmlns="http://www.w3.org/2000/svg" x="0" y="0" viewBox="0 0 99 99" xml:space="preserve"><style>.st0{fill:#403b33}</style><g id="Слой_2_1_"><g id="Слой_1-2"><path class="st0" d="M49.5 99h-1C21.2 98.4-.5 75.8 0 48.5.3 35.3 5.7 23 15.2 13.8S37.2-.2 50.5 0C63.7.3 76 5.7 85.2 15.2c9.2 9.5 14.1 22.1 13.8 35.3-.3 13.2-5.7 25.5-15.2 34.7C74.5 94.1 62.4 99 49.5 99zM1.7 48.5h1.6C2.8 74 23.1 95.2 48.6 95.7c12.3.2 24-4.3 32.9-12.9 8.9-8.5 13.9-20.1 14.2-32.4.2-12.3-4.3-24-12.9-32.9-8.5-8.9-20-13.9-32.4-14.2-12.3-.3-24 4.3-32.9 12.9-8.9 8.5-13.9 20-14.2 32.4l-1.6-.1z"/><path class="st0" d="M49.5 85.4c-5.1 0-9.9-2-13.5-5.6-3.6-3.6-5.6-8.4-5.6-13.5V32.8c0-10.6 8.6-19.1 19.1-19.1s19.2 8.6 19.2 19.1v33.5c0 10.5-8.6 19.1-19.2 19.1v-1.7 1.7zM33.7 67.5c.3 3.8 1.9 7.3 4.6 10 3 3 7 4.6 11.2 4.6 3.4 0 6.5-1.1 9.1-2.9-14.1.7-21.3-6-24.9-11.7zm-.1-8.4c.4 1.9 4.8 19.8 28.7 16.4 1.7-2.4 2.8-5.3 3-8.4-18 .8-27.3-9.2-31.7-16.3v8.3zm11.2-.7c4.8 3.4 11.4 5.9 20.5 5.5v-14c-5.1 5.7-14.9 7.8-20.5 8.5zM33.6 43.1c.4 1.2 2.4 7.1 7.6 12.3 3.7-.3 24.1-2.3 24.1-14.1v-8.5c0-8.7-7.1-15.9-15.8-15.9-8.7 0-15.9 7.1-15.9 15.9v10.3z"/><path class="st0" d="M49.6 40.2c-1.7 0-3.3-.7-4.5-1.9l2.3-2.4c.6.6 1.4.9 2.2.9.8 0 1.6-.3 2.2-.9.6-.6 1.7-.6 2.3 0 .6.6.6 1.7 0 2.3-1.1 1.3-2.7 2-4.5 2z"/><path class="st0" d="M49.5 45.7c-6.8 0-12.4-5.6-12.4-12.4s5.6-12.4 12.4-12.4c6.8 0 12.4 5.6 12.4 12.4 0 6.8-5.6 12.4-12.4 12.4zm0-21.5c-5 0-9.1 4.1-9.1 9.1s4.1 9.1 9.1 9.1 9.1-4.1 9.1-9.1-4.1-9.1-9.1-9.1z"/></g></g></svg>