<svg version="1.1" id="Слой_1" xmlns="http://www.w3.org/2000/svg" x="0" y="0" viewBox="0 0 99 99" xml:space="preserve"><style>.st0{fill:#403b33}</style><g id="Слой_2_1_"><g id="Слой_1-2"><path class="st0" d="M49.5 99H49c-13.2-.1-25.6-5.4-34.9-14.9C4.9 74.7-.1 62.2 0 49s5.4-25.6 14.9-34.9S36.8-.1 50 0c13.2.1 25.6 5.4 34.9 14.9C94.1 24.3 99.1 36.8 99 50c-.1 13.2-5.4 25.6-14.9 34.9C74.8 94 62.5 99 49.5 99zm0-95.7C37.3 3.3 25.9 8 17.2 16.5 8.3 25.1 3.4 36.7 3.3 49c-.1 12.4 4.6 24 13.2 32.8 8.6 8.8 20.2 13.7 32.5 13.9h.5c12.2 0 23.6-4.7 32.3-13.2 8.8-8.6 13.7-20.2 13.9-32.5.1-12.3-4.6-24-13.2-32.8C73.9 8.3 62.3 3.4 50 3.3h-.5z"/><path class="st0" d="M49.5 57.2c-5.2 0-10.1-2-13.9-5.7-3.7-3.7-5.8-8.6-5.8-13.9-.1-10.9 8.7-19.7 19.6-19.8v1.6-1.6h.1c5.2 0 10.1 2 13.9 5.7 3.7 3.7 5.8 8.6 5.8 13.9.1 10.9-8.7 19.7-19.7 19.8.1 0 0 0 0 0zm0-36.1c-9.1 0-16.4 7.4-16.4 16.5 0 9 7.4 16.3 16.4 16.3h.1c9 0 16.4-7.4 16.3-16.5 0-4.4-1.7-8.5-4.9-11.6-3.1-3-7.1-4.7-11.5-4.7z"/><path class="st0" d="M49.5 81.2c-.9 0-1.6-.7-1.6-1.7V56.6c0-.9.7-1.7 1.6-1.7s1.7.7 1.7 1.7v22.9c0 1-.8 1.7-1.7 1.7z"/><path class="st0" d="M61 69.8H38c-.9 0-1.6-.7-1.6-1.7s.7-1.7 1.6-1.7h23c.9 0 1.7.7 1.7 1.7s-.8 1.7-1.7 1.7z"/></g></g></svg>