<svg xmlns="http://www.w3.org/2000/svg" viewBox="0 0 99 99"><path d="M49.5 99C22.2 99 0 76.8 0 49.5S22.2 0 49.5 0 99 22.2 99 49.5 76.8 99 49.5 99zm0-95.7C24 3.3 3.3 24 3.3 49.5c0 25.4 20.8 46.2 46.2 46.2C75 95.7 95.7 75 95.7 49.5S75 3.3 49.5 3.3z"/><path d="M54.5 76.6h-3c-2.4 0-4.5-1.8-4.7-4.3l-1.7-15.6c-1.3-1.1-2.1-2.6-2.3-4.3L41.7 44v-.6c0-3.9 3.2-7.1 7.1-7.1h9.3c3.9.5 6.8 4 6.3 7.9l-1.1 8.3c-.2 1.7-1 3.2-2.4 4.3l-1.7 15.6c-.2 2.3-2.3 4.2-4.7 4.2zM45 43.8l1.1 8.2c.1 1 .6 1.8 1.5 2.4l.7.4L50 72c.1.7.7 1.3 1.5 1.3h3c.8 0 1.4-.6 1.5-1.3l1.9-17.1.7-.4c.8-.5 1.4-1.4 1.5-2.4l1.1-8.3c.2-2-1.2-3.9-3.3-4.2h-9.1c-2.1 0-3.8 1.7-3.8 3.8v.4zM25.3 76.4c-2.4 0-4.4-1.8-4.7-4.2l-.4-2.4h-2c-1.1-.2-2.1-.9-2.8-1.8-.6-1-.9-2.2-.6-3.4.7-2.8 1.4-5.6 2.2-8.4-.8-.3-1.5-.9-2-1.6-.8-1.2-1.1-2.6-.8-4v-.1l2.9-9.2c.7-2.7 3-4.9 5.8-5.3.6-.1 6.3-.1 6.9 0 2.8.4 5.1 2.4 5.7 5.2l2.9 9.7v.4c.2 2.1-1 4-2.8 4.8l2.3 9.3c0 1.1-.4 2.2-1.2 3-.8.8-1.9 1.3-3.1 1.3h-1.2l-.4 2.4c-.3 2.4-2.3 4.2-4.7 4.2h-2v.1zm-6.5-9.8h4.3l.8 5.3c.1.8.8 1.3 1.5 1.3h2c.8 0 1.4-.6 1.5-1.3l.8-5.3h4c.3 0 .5-.1.7-.3.2-.2.3-.5.3-.7v-.2l-3.1-12H34c.8-.2 1.4-.9 1.3-1.7l-2.9-9.4c-.3-1.5-1.5-2.5-3-2.7h-6c-1.4.2-2.6 1.3-3 2.8v.1l-2.9 9.1c-.1.4 0 .9.3 1.2.2.3.5.5.9.6h2.6l-.5 2.1c-.9 3.3-1.7 6.7-2.6 10-.1.2 0 .5.2.8 0 .1.2.2.4.3zm17.6-15.1l-.2.1.4-.1h-.2zM75.5 76.6c-2.2 0-4-1.6-4.3-3.8L70 65.2c-1-.9-1.6-2.1-1.7-3.5l-.9-6.2v-.7c0-3.3 2.7-6 6.1-6H80.4c1.7.2 3.2 1 4.2 2.3 1 1.3 1.5 2.9 1.3 4.5l-.8 6.1c-.2 1.4-.8 2.6-1.8 3.5l-1.1 7.5c-.2 2.2-2.1 3.8-4.3 3.8h-2.4c.1.1.1.1 0 .1zm-4.7-21.4l.9 6.1c.1.7.4 1.3 1 1.6l.6.4 1.4 9c.1.6.5 1 1 1h2.2c.6 0 1-.4 1.1-1l1.3-9 .6-.4c.6-.4.9-1 1-1.7l.8-6.1c.1-.7-.1-1.5-.6-2-.5-.6-1.1-1-1.9-1H73.6c-1.5 0-2.8 1.3-2.8 2.8V55.2zM76.7 46.1c-3.2 0-5.7-2.6-5.7-5.7 0-3.2 2.6-5.7 5.7-5.7 3.2 0 5.7 2.6 5.7 5.7s-2.6 5.7-5.7 5.7zm0-8.2c-1.3 0-2.4 1.1-2.4 2.4 0 1.3 1.1 2.4 2.4 2.4v1.6-1.6c1.3 0 2.4-1.1 2.4-2.4s-1.1-2.4-2.4-2.4zM26.4 33.7c-3.4 0-6.1-2.8-6.1-6.1 0-3.4 2.8-6.1 6.1-6.1 1.6 0 3.2.6 4.3 1.8 1.2 1.2 1.8 2.7 1.8 4.3 0 3.4-2.8 6.1-6.1 6.1zm-2.9-6.1c0 1.6 1.3 2.8 2.8 2.8 1.6 0 2.8-1.3 2.8-2.8 0-.8-.3-1.5-.8-2s-1.2-.8-2-.8c-1.5 0-2.8 1.2-2.8 2.8zM53 33.7c-3.4 0-6.2-2.8-6.1-6.2 0-1.6.6-3.2 1.8-4.3 1.2-1.2 2.7-1.8 4.3-1.8 3.4 0 6.2 2.8 6.2 6.1s-2.8 6.2-6.2 6.2zm0-9c-.8 0-1.5.3-2 .8s-.8 1.3-.8 2c0 1.6 1.3 2.8 2.8 2.8 1.6 0 2.9-1.3 2.9-2.8s-1.3-2.8-2.9-2.8z"/></svg>