<svg viewBox="0 0 99 99" xmlns="http://www.w3.org/2000/svg"><g fill="#403b33"><path d="m49.5 99h-1c-27.3-.6-49-23.2-48.5-50.5.3-13.2 5.7-25.5 15.2-34.7s22-14 35.3-13.8c13.2.3 25.5 5.7 34.7 15.2s14.1 22.1 13.8 35.3-5.7 25.5-15.2 34.7c-9.3 8.9-21.4 13.8-34.3 13.8zm-47.8-50.5h1.6c-.5 25.5 19.8 46.7 45.3 47.2 12.3.2 24-4.3 32.9-12.9 8.9-8.5 13.9-20.1 14.2-32.4.2-12.3-4.3-24-12.9-32.9-8.5-8.9-20-13.9-32.4-14.2-12.3-.3-24 4.3-32.9 12.9-8.9 8.5-13.9 20-14.2 32.4z"/><path d="m49.5 85.4c-5.1 0-9.9-2-13.5-5.6s-5.6-8.4-5.6-13.5v-33.5c0-10.6 8.6-19.1 19.1-19.1s19.2 8.6 19.2 19.1v33.5c0 10.5-8.6 19.1-19.2 19.1v-1.7zm-15.8-17.9c.3 3.8 1.9 7.3 4.6 10 3 3 7 4.6 11.2 4.6 3.4 0 6.5-1.1 9.1-2.9-14.1.7-21.3-6-24.9-11.7zm-.1-8.4c.4 1.9 4.8 19.8 28.7 16.4 1.7-2.4 2.8-5.3 3-8.4-18 .8-27.3-9.2-31.7-16.3zm11.2-.7c4.8 3.4 11.4 5.9 20.5 5.5v-14c-5.1 5.7-14.9 7.8-20.5 8.5zm-11.2-15.3c.4 1.2 2.4 7.1 7.6 12.3 3.7-.3 24.1-2.3 24.1-14.1v-8.5c0-8.7-7.1-15.9-15.8-15.9s-15.9 7.1-15.9 15.9z"/><path d="m49.6 40.2c-1.7 0-3.3-.7-4.5-1.9l2.3-2.4c.6.6 1.4.9 2.2.9s1.6-.3 2.2-.9 1.7-.6 2.3 0 .6 1.7 0 2.3c-1.1 1.3-2.7 2-4.5 2z"/><path d="m49.5 45.7c-6.8 0-12.4-5.6-12.4-12.4s5.6-12.4 12.4-12.4 12.4 5.6 12.4 12.4-5.6 12.4-12.4 12.4zm0-21.5c-5 0-9.1 4.1-9.1 9.1s4.1 9.1 9.1 9.1 9.1-4.1 9.1-9.1-4.1-9.1-9.1-9.1z"/></g></svg>