<?xml version="1.0" encoding="utf-8"?>
<!-- Generator: Adobe Illustrator 16.0.4, SVG Export Plug-In . SVG Version: 6.00 Build 0)  -->
<!DOCTYPE svg PUBLIC "-//W3C//DTD SVG 1.1//EN" "http://www.w3.org/Graphics/SVG/1.1/DTD/svg11.dtd">
<svg version="1.1" id="Слой_1" xmlns="http://www.w3.org/2000/svg" xmlns:xlink="http://www.w3.org/1999/xlink" x="0px" y="0px"
	 width="1920px" height="1080px" viewBox="0 0 1920 1080" enable-background="new 0 0 1920 1080" xml:space="preserve">
<path d="M960,1080c-297.818,0-540-242.182-540-540S662.182,0,960,0s540,242.182,540,540S1257.818,1080,960,1080z M960,36
	c-278.182,0-504,225.818-504,504s225.818,504,504,504s504-225.818,504-504S1238.182,36,960,36L960,36z"/>
<g>
	<path d="M1082.182,214.909H837.818c-24,0-61.091,16.363-61.091,61.091v58.909v36v324v36v72c0,25.091,16.363,62.182,61.091,62.182
		h244.363c25.091,0,62.182-16.363,62.182-62.182v-72v-36v-324v-36V276C1144.363,252,1126.909,214.909,1082.182,214.909z
		 M1107.272,804c0,21.818-17.454,25.091-25.091,25.091H837.818c-22.909,0-26.182-17.454-26.182-25.091v-73.091h295.636V804z
		 M1107.272,694.909H811.637v-324h295.636V694.909z M811.637,334.909v-57.818c0-22.909,18.545-26.182,26.182-26.182v-1.091h244.363
		c21.818,0,25.091,18.545,25.091,26.182v58.909H811.637z"/>
	<path d="M960,806.182c15.272,0,27.272-12,27.272-27.272s-12-27.272-27.272-27.272s-27.272,12-27.272,27.272
		S944.728,806.182,960,806.182z"/>
	<path d="M1006.909,277.091H912c-9.818,0-17.455,7.637-17.455,17.455c0,9.818,7.637,17.455,17.455,17.455h94.909
		c10.909,0,18.546-7.636,18.546-17.455C1025.455,284.728,1016.728,277.091,1006.909,277.091z"/>
</g>
</svg>
