<svg viewBox="0 0 99 99" xmlns="http://www.w3.org/2000/svg"><g fill="#403b33"><path d="m49.5 99h-.5c-13.2-.1-25.6-5.4-34.9-14.9-9.2-9.4-14.2-21.9-14.1-35.1s5.4-25.6 14.9-34.9 21.9-14.2 35.1-14.1 25.6 5.4 34.9 14.9c9.2 9.4 14.2 21.9 14.1 35.1s-5.4 25.6-14.9 34.9c-9.3 9.1-21.6 14.1-34.6 14.1zm0-95.7c-12.2 0-23.6 4.7-32.3 13.2-8.9 8.6-13.8 20.2-13.9 32.5-.1 12.4 4.6 24 13.2 32.8s20.2 13.7 32.5 13.9h.5c12.2 0 23.6-4.7 32.3-13.2 8.8-8.6 13.7-20.2 13.9-32.5.1-12.3-4.6-24-13.2-32.8-8.6-8.9-20.2-13.8-32.5-13.9h-.5z"/><path d="m50 45.5c-.3 0-.6-.1-.8-.2-3.7-2.2-6.3-5.6-7.5-9.7-1.9-8 3.7-15.2 7.1-18.8.3-.3.7-.5 1.2-.5.4 0 .9.2 1.2.5 5.9 6 8.5 12.8 7.2 18.7v.1c-1.2 4.1-3.8 7.5-7.5 9.7-.3.1-.6.2-.9.2zm0-25.1c-2.6 3-6.5 8.6-5.1 14.4.8 2.9 2.6 5.4 5.1 7.1 2.5-1.7 4.3-4.2 5.1-7.2 1.4-5.7-2.5-11.3-5.1-14.3zm6.3 41.2c-1.2 0-2.4-.2-3.6-.5-.6-.2-1-.6-1.2-1.2-.9-3.6-.4-7.4 1.4-10.7v-.1c3.8-6.1 11.7-7.2 16.1-7.3.5 0 .9.2 1.2.5s.5.7.5 1.2c0 4.4-1.1 12.3-7.2 16.1-2.3 1.4-4.7 2-7.2 2zm-1.8-3.4c2.5.4 5.1 0 7.3-1.3 4.1-2.5 5.2-8.1 5.5-11.6-3.8.3-9 1.5-11.5 5.6-1.3 2.2-1.7 4.8-1.3 7.3zm1.8 24.5c-1.2 0-2.4-.2-3.6-.5-.6-.2-1-.6-1.2-1.2-.9-3.6-.4-7.4 1.4-10.7v-.1c3.8-6.1 11.7-7.2 16.1-7.2.4 0 .9.2 1.2.5s.5.7.5 1.2c0 4.4-1.1 12.3-7.2 16.1-2.3 1.2-4.7 1.9-7.2 1.9zm-1.8-3.5c2.5.4 5.1 0 7.3-1.3 4.1-2.6 5.2-8.1 5.5-11.6-3.8.3-9 1.5-11.5 5.6-1.3 2.3-1.7 4.8-1.3 7.3zm-11.8-17.5c-2.5 0-4.9-.6-7.1-1.9-6.3-3.8-7.3-11.8-7.3-16.1 0-.4.2-.9.5-1.2s.7-.5 1.2-.5c4.4 0 12.3 1.1 16.1 7.3 1.9 3.3 2.4 7.1 1.4 10.8-.1.6-.6 1-1.2 1.2-1.2.2-2.4.4-3.6.4zm-11-16.3c.3 3.8 1.5 9.1 5.6 11.6 2.2 1.2 4.7 1.7 7.3 1.3.4-2.5 0-5.1-1.3-7.3-2.6-4.3-8.2-5.4-11.6-5.6zm11 37.3c-2.5 0-4.9-.6-7.1-1.9-6.2-3.8-7.2-11.8-7.3-16.1 0-.4.2-.9.5-1.2s.7-.5 1.2-.5c4.4 0 12.3 1.1 16.1 7.3 1.9 3.3 2.4 7.1 1.4 10.8-.1.6-.6 1-1.2 1.2-1.2.3-2.4.4-3.6.4zm-11-16.3c.3 3.5 1.4 9 5.6 11.6 2.2 1.2 4.7 1.7 7.3 1.3.4-2.5 0-5.1-1.3-7.3-2.6-4.2-7.9-5.3-11.6-5.6z"/></g></svg>