<svg enable-background="new 0 0 1920 1080" height="1080" viewBox="0 0 1920 1080" width="1920" xmlns="http://www.w3.org/2000/svg"><path d="m960 1080c-297.818 0-540-242.182-540-540s242.182-540 540-540 540 242.182 540 540-242.182 540-540 540zm0-1044c-278.182 0-504 225.818-504 504s225.818 504 504 504 504-225.818 504-504-225.818-504-504-504z"/><path d="m1082.182 214.909h-244.364c-24 0-61.091 16.363-61.091 61.091v58.909 36 324 36 72c0 25.091 16.363 62.182 61.091 62.182h244.363c25.091 0 62.182-16.363 62.182-62.182v-72-36-324-36-58.909c0-24-17.454-61.091-62.181-61.091zm25.09 589.091c0 21.818-17.454 25.091-25.091 25.091h-244.363c-22.909 0-26.182-17.454-26.182-25.091v-73.091h295.636zm0-109.091h-295.635v-324h295.636v324zm-295.635-360v-57.818c0-22.909 18.545-26.182 26.182-26.182v-1.091h244.363c21.818 0 25.091 18.545 25.091 26.182v58.909z"/><path d="m960 806.182c15.272 0 27.272-12 27.272-27.272s-12-27.272-27.272-27.272-27.272 12-27.272 27.272 12 27.272 27.272 27.272z"/><path d="m1006.909 277.091h-94.909c-9.818 0-17.455 7.637-17.455 17.455s7.637 17.455 17.455 17.455h94.909c10.909 0 18.546-7.636 18.546-17.455 0-9.818-8.727-17.455-18.546-17.455z"/></svg>