<svg version="1.1" id="Слой_1" xmlns="http://www.w3.org/2000/svg" x="0" y="0" viewBox="0 0 99 99" xml:space="preserve"><style>.st0{fill:#403b33}</style><g id="Слой_2_1_"><g id="Слой_1-2"><path class="st0" d="M49.5 99h-1C21.2 98.4-.5 75.8 0 48.5.3 35.3 5.7 23 15.2 13.8S37.2-.2 50.5 0C63.7.3 76 5.7 85.2 15.2c9.2 9.5 14.1 22.1 13.8 35.3-.3 13.2-5.7 25.5-15.2 34.7C74.5 94.1 62.4 99 49.5 99zM1.7 48.5h1.6C2.8 74 23.1 95.2 48.6 95.7c12.3.2 24-4.3 32.9-12.9 8.9-8.5 13.9-20.1 14.2-32.4.2-12.3-4.3-24-12.9-32.9-8.5-8.9-20-13.9-32.4-14.2-12.3-.3-24 4.3-32.9 12.9-8.9 8.5-13.9 20-14.2 32.4l-1.6-.1z"/><path class="st0" d="M52.4 71.7H19.6c-.9 0-1.6-.7-1.6-1.7V45.5c0-4.8 1.9-9.3 5.3-12.7 3.4-3.4 7.9-5.3 12.7-5.3 4.8 0 9.3 1.9 12.7 5.3S54 40.7 54 45.5V70c0 .9-.7 1.7-1.6 1.7zm-31.1-3.4h29.4V45.5c0-3.9-1.5-7.6-4.3-10.4A14.6 14.6 0 0 0 36 30.8c-3.9 0-7.6 1.5-10.4 4.3a14.6 14.6 0 0 0-4.3 10.4v22.8z"/><path class="st0" d="M79.4 71.7H46.6v-3.3h31.1V45.5c0-8.2-6.6-14.8-14.7-14.9H36v-3.3h27c10 0 18.1 8.2 18 18.2V70c0 .9-.7 1.7-1.6 1.7z"/><path class="st0" d="M52.6 43.4h27v3.3h-27zM40 43.9H30c-.9 0-1.6-.7-1.6-1.6s.7-1.6 1.6-1.6h10c.9 0 1.6.7 1.6 1.6s-.7 1.6-1.6 1.6zM43.8 70h-3.3V57.1c0-3.1-2.5-5.5-5.5-5.5s-5.5 2.5-5.5 5.5V70h-3.3V57.1c0-4.9 4-8.8 8.8-8.8s8.8 4 8.8 8.8V70z"/></g></g></svg>