<svg viewBox="0 0 99 99" xmlns="http://www.w3.org/2000/svg"><g fill="#403b33"><path d="m49.5 99h-1c-27.3-.6-49-23.2-48.5-50.5.3-13.2 5.7-25.5 15.2-34.7s22-14 35.3-13.8c13.2.3 25.5 5.7 34.7 15.2s14.1 22.1 13.8 35.3-5.7 25.5-15.2 34.7c-9.3 8.9-21.4 13.8-34.3 13.8zm-47.8-50.5h1.6c-.5 25.5 19.8 46.7 45.3 47.2 12.3.2 24-4.3 32.9-12.9 8.9-8.5 13.9-20.1 14.2-32.4.2-12.3-4.3-24-12.9-32.9-8.5-8.9-20-13.9-32.4-14.2-12.3-.3-24 4.3-32.9 12.9-8.9 8.5-13.9 20-14.2 32.4z"/><path d="m52.4 71.7h-32.8c-.9 0-1.6-.7-1.6-1.7v-24.5c0-4.8 1.9-9.3 5.3-12.7s7.9-5.3 12.7-5.3 9.3 1.9 12.7 5.3 5.3 7.9 5.3 12.7v24.5c0 .9-.7 1.7-1.6 1.7zm-31.1-3.4h29.4v-22.8c0-3.9-1.5-7.6-4.3-10.4a14.6 14.6 0 0 0 -10.4-4.3c-3.9 0-7.6 1.5-10.4 4.3a14.6 14.6 0 0 0 -4.3 10.4z"/><path d="m79.4 71.7h-32.8v-3.3h31.1v-22.9c0-8.2-6.6-14.8-14.7-14.9h-27v-3.3h27c10 0 18.1 8.2 18 18.2v24.5c0 .9-.7 1.7-1.6 1.7z"/><path d="m52.6 43.4h27v3.3h-27zm-12.6.5h-10c-.9 0-1.6-.7-1.6-1.6s.7-1.6 1.6-1.6h10c.9 0 1.6.7 1.6 1.6s-.7 1.6-1.6 1.6zm3.8 26.1h-3.3v-12.9c0-3.1-2.5-5.5-5.5-5.5s-5.5 2.5-5.5 5.5v12.9h-3.3v-12.9c0-4.9 4-8.8 8.8-8.8s8.8 4 8.8 8.8z"/></g></svg>