<svg viewBox="0 0 99 99" xmlns="http://www.w3.org/2000/svg"><g fill="#403b33"><path d="m49.5 99h-.5c-13.2-.1-25.6-5.4-34.9-14.9-9.2-9.4-14.2-21.9-14.1-35.1s5.4-25.6 14.9-34.9 21.9-14.2 35.1-14.1 25.6 5.4 34.9 14.9c9.2 9.4 14.2 21.9 14.1 35.1s-5.4 25.6-14.9 34.9c-9.3 9.1-21.6 14.1-34.6 14.1zm0-95.7c-12.2 0-23.6 4.7-32.3 13.2-8.9 8.6-13.8 20.2-13.9 32.5-.1 12.4 4.6 24 13.2 32.8s20.2 13.7 32.5 13.9h.5c12.2 0 23.6-4.7 32.3-13.2 8.8-8.6 13.7-20.2 13.9-32.5.1-12.3-4.6-24-13.2-32.8-8.6-8.9-20.2-13.8-32.5-13.9h-.5z"/><path d="m49.5 57.2c-5.2 0-10.1-2-13.9-5.7-3.7-3.7-5.8-8.6-5.8-13.9-.1-10.9 8.7-19.7 19.6-19.8v1.6-1.6h.1c5.2 0 10.1 2 13.9 5.7 3.7 3.7 5.8 8.6 5.8 13.9.1 10.9-8.7 19.7-19.7 19.8zm0-36.1c-9.1 0-16.4 7.4-16.4 16.5 0 9 7.4 16.3 16.4 16.3h.1c9 0 16.4-7.4 16.3-16.5 0-4.4-1.7-8.5-4.9-11.6-3.1-3-7.1-4.7-11.5-4.7z"/><path d="m49.5 81.2c-.9 0-1.6-.7-1.6-1.7v-22.9c0-.9.7-1.7 1.6-1.7s1.7.7 1.7 1.7v22.9c0 1-.8 1.7-1.7 1.7z"/><path d="m61 69.8h-23c-.9 0-1.6-.7-1.6-1.7s.7-1.7 1.6-1.7h23c.9 0 1.7.7 1.7 1.7s-.8 1.7-1.7 1.7z"/></g></svg>